<?xml version="1.0" encoding="UTF-8"?><svg id="b" xmlns="http://www.w3.org/2000/svg" viewBox="0 0 1157.29 131"><defs><style>.d{fill:#006837;}.e{fill:none;stroke:#8cc63f;stroke-width:18px;}</style></defs><g id="c"><path d="M6.84,86.48h9.12c3.47,0,5.2,1.34,5.2,4.01v4.56c0,.61-.76,1.37-2.28,2.28H4.01c-2.68,0-4.01-1.34-4.01-4.01v-2.83c0-2.68,2.28-4.01,6.84-4.01ZM15.96,68.24c3.47,0,5.2,1.31,5.2,3.92v4.65c0,.55-.76,1.31-2.28,2.28h-5.75c-2.68,0-4.01-1.34-4.01-4.01v-4.01c0-1.64,2.28-2.58,6.84-2.83ZM19.43,6.02h13.14c2.61,0,3.92,1.31,3.92,3.92v2.92c0,2.62-1.31,3.92-3.92,3.92h-13.14c-2.07,0-3.41-.76-4.01-2.28v-6.2c.61-1.52,1.95-2.28,4.01-2.28ZM38.86.27h83.29l1.73,1.19-.55,3.92v1.19c0,3.04,3.41,4.56,10.22,4.56,1.15,0,1.92,3.22,2.28,9.67l2.92.64h5.11c1.52.61,2.28,1.92,2.28,3.92v14.32c0,3.04-1.52,4.56-4.56,4.56h-4.56c-1.16.37-1.73,1.49-1.73,3.38v4.56c0,.61-.76,1.37-2.28,2.28h-4.01c-2.92,0-4.81.97-5.66,2.92v4.01c0,3.04-3.04,4.56-9.12,4.56-.91,1.88-1.49,2.83-1.73,2.83.36.73.55,1.31.55,1.73,0,3.35-.94,5.44-2.83,6.29h-4.56c-2.68,0-4.01,1.7-4.01,5.11,0,3.04,1.12,4.56,3.38,4.56l4.01.55c4.01-.37,7.27-.55,9.76-.55,3.04,0,4.56,2.68,4.56,8.03,0,3.04,1.88,4.56,5.66,4.56h4.01c.61,0,1.37.76,2.28,2.28v4.56c.24,2.25.82,3.38,1.73,3.38h3.38c3.83,0,5.75,1.52,5.75,4.56v12.59c0,3.04-1.92,4.56-5.75,4.56h-10.22c-4.56,0-6.84-1.34-6.84-4.01,0-1.64-2.68-2.58-8.03-2.83-.73-.79-1.49-3.65-2.28-8.58,1.46-1.15,3.16-1.73,5.11-1.73h3.47c.3,0,.88-.58,1.73-1.73-.55-1.88-1.89-2.83-4.01-2.83h-13.68c-2.01,0-3.16-.58-3.47-1.73v-2.28c0-4.13-.58-6.2-1.73-6.2h-2.28c-4.56,0-6.84-1.34-6.84-4.01,0-4.99-.94-7.48-2.83-7.48-3.04,0-7.02-.18-11.95-.55-12.59.43-18.88,1.58-18.88,3.47v36.49c0,2.68-1.7,4.01-5.11,4.01h-9.12c-4.62,0-6.93-1.34-6.93-4.01v-11.95c0-.61.79-1.37,2.37-2.28h4.56c2.61,0,3.92-1.73,3.92-5.2v-1.64c0-2.07-.76-3.41-2.28-4.01h-6.2c-.61,0-1.4-.76-2.37-2.28v-42.24c0-2.13-.94-3.47-2.83-4.01-2.62.37-4.71.55-6.29.55-1.52-.49-2.28-2.01-2.28-4.56,0-4.56,1.52-6.84,4.56-6.84h5.2c1.09-.37,1.64-1.49,1.64-3.38v-19.98c0-.61.79-1.4,2.37-2.37h15.33c2.01,0,3.16-.55,3.47-1.64v-7.48c-.36-1.09-1.52-1.64-3.47-1.64h-15.33c-.61,0-1.4-.76-2.37-2.28v-1.19c0-.61.79-1.37,2.37-2.28ZM29.65,101.9h2.92c2.61,0,3.92,1.34,3.92,4.01v2.83c0,2.68-1.7,4.01-5.11,4.01-3.77,0-5.66-1.52-5.66-4.56v-1.19c0-3.41,1.31-5.11,3.92-5.11ZM57.66,26.55v35.4c0,2.25,1.15,3.38,3.47,3.38h27.92c1.52,0,2.46-3.22,2.83-9.67,6.51-.91,9.76-2.07,9.76-3.47,0-5.29,1.52-7.94,4.56-7.94,4.2,0,6.29-1.52,6.29-4.56,0-4.99,1.34-7.48,4.01-7.48,4.56,0,6.84-1.31,6.84-3.92v-3.47c0-1.95-.58-3.07-1.73-3.38h-59.94c-2.68,0-4.01,1.7-4.01,5.11Z"/><path d="M142.5,115.77h10.67c3.41,0,5.11,1.31,5.11,3.92v.55c0,3.43-2.78,6.2-6.2,6.2h-10.77c-1.64,0-2.82-.49-3.52-1.47-.27-.38-.4-.84-.4-1.3v-3.98c0-2.61,1.7-3.92,5.11-3.92ZM150.34,63.22h14.69c2.68,0,4.01,1.7,4.01,5.11v.55c0,3.41-1.89,5.11-5.66,5.11h-9.58c-4.07,0-6.48-.81-7.24-2.44-.12-.25-.15-.53-.15-.8v-4.72c0-.34.06-.69.22-.98.68-1.21,1.91-1.81,3.7-1.81ZM154.35,90.77h1.09c3.41,0,5.11,1.31,5.11,3.92v4.47c0,.51-.55,1.14-1.64,1.87-.39.26-.84.41-1.31.41h-2.71c-3.43,0-6.2-2.78-6.2-6.2v-1.12c0-.47.13-.93.4-1.31.98-1.36,2.73-2.05,5.25-2.05ZM160.28,10.4h1.09c3.41,0,5.11,1.31,5.11,3.92v4.47c0,.52-.55,1.14-1.64,1.87-.39.26-.84.41-1.3.41h-2.71c-3.43,0-6.2-2.78-6.2-6.2v-1.12c0-.47.13-.93.4-1.31.98-1.36,2.73-2.05,5.25-2.05ZM172.97,0h101.03c.45,0,.9.13,1.28.38,1.43.98,2.14,2.73,2.14,5.27v11.31c0,3.77-2.25,5.66-6.75,5.66h-75.08c-3.12,0-5.66,2.53-5.66,5.66v24.27c0,2.25,1.49,3.38,4.47,3.38h57.62c.46,0,.93.13,1.3.4.98.71,1.47,1.88,1.47,3.52v12.96c0,3.77-1.86,5.66-5.56,5.66h-57.66c-.44,0-.88.37-1.31,1.11-.21.36-.33.77-.33,1.19v21.97c0,3.12,2.53,5.66,5.66,5.66h77.91c2.61,0,3.92,2.28,3.92,6.84v10.13c0,2.54-.71,4.3-2.14,5.27-.37.26-.82.38-1.28.38h-101.04c-1.79,0-3.02-.6-3.7-1.81-.17-.3-.22-.64-.22-.98v-50.73c0-.08,0-.16.01-.24.19-2.17.74-3.25,1.63-3.25h14.69c3.04,0,4.56-1.12,4.56-3.38v-5.66c0-.43-.36-.89-1.09-1.36-.37-.24-.82-.37-1.26-.37h-16.35c-.47,0-1.06-.55-1.79-1.65-.25-.38-.4-.83-.4-1.29V23.17c0-1.52,2.25-2.28,6.75-2.28h0c1.86,0,3.38-1.51,3.38-3.38v-5.11c0-.44-.37-.88-1.11-1.32-.36-.21-.77-.33-1.19-.33h-2.81c-2.42,0-3.98-.54-4.71-1.63-.22-.34-.31-.75-.31-1.16V2.8c0-.34.06-.69.22-.98.68-1.21,1.91-1.81,3.7-1.81ZM222.68,25.45h1.09c3.41,0,5.11,1.31,5.11,3.92v4.47c0,.52-.55,1.14-1.64,1.87-.39.26-.84.41-1.3.41h-2.71c-3.43,0-6.2-2.78-6.2-6.2v-1.12c0-.47.13-.93.4-1.31.98-1.36,2.73-2.05,5.25-2.05Z"/><path d="M269.21,96.61h17.42c1.52.61,2.28,1.92,2.28,3.92v2.28c0,2.01-.76,3.32-2.28,3.92h-15.24c-2.61,0-3.92-1.67-3.92-5.02v-3.38c0-.55.58-1.12,1.73-1.73ZM270.31,63.4h3.92c2.01,0,3.31.73,3.92,2.19v4.56c0,2.62-2.07,3.92-6.2,3.92-2.61-.49-3.92-1.25-3.92-2.28v-6.2c0-.55.76-1.28,2.28-2.19ZM283.81,31.84h5.66c.61,0,1.37.76,2.28,2.28v6.2c-.55,1.46-2.25,2.19-5.11,2.19s-4.56-.73-5.11-2.19v-6.2c0-.61.76-1.37,2.28-2.28ZM318.2.27h56.93c2.61,0,3.92,2.43,3.92,7.3l.55,3.38h7.3c.61,0,1.37.76,2.28,2.28v3.92c0,3.77,1.31,5.66,3.92,5.66.73,0,2.07-.36,4.01-1.09,1.88.49,2.83,1.79,2.83,3.92v15.78c0,.61-.76,1.37-2.28,2.28h-16.33c-.61,0-1.37-.76-2.28-2.28v-14.14c0-2.98-1.13-4.47-3.38-4.47h-58.02c-2.25,0-3.38,1.13-3.38,3.38v60.3c0,.61-.76,1.37-2.28,2.28h-4.47c-2.68,0-4.01,1.67-4.01,5.02v.64c0,2.86.76,4.53,2.28,5.02h6.2c1.52,0,2.46,2.83,2.83,8.48l2.83.55h58.02c2.25,0,3.38-1.49,3.38-4.47v-14.14c0-.61.76-1.37,2.28-2.28h16.33c.55,0,1.31.76,2.28,2.28v14.69c0,2.62-1.34,3.92-4.01,3.92h-3.92c-1.89.85-2.83,2.74-2.83,5.66v3.92c0,.61-.76,1.37-2.28,2.28h-4.47c-2.25.24-3.38.79-3.38,1.64v4.56c0,2.01-.94,3.5-2.83,4.47h-58.02c-2.62,0-3.92-1.31-3.92-3.92v-5.11c0-1.1-3.41-1.86-10.22-2.28-.73-1.22-1.09-2.34-1.09-3.38,0-.37.18-.55.55-.55,0-4.87-1.31-7.3-3.92-7.3-5.23,0-7.85-1.12-7.85-3.38v-58.66c0-2.01.73-3.31,2.19-3.92h6.2c1.95,0,3.07-.55,3.38-1.64v-7.39c0-.49-.55-1.03-1.64-1.64h-6.2c-2.62,0-3.92-1.31-3.92-3.92v-1.19c0-2.98,3.19-4.47,9.58-4.47,1.46-2.07,2.19-4.13,2.19-6.2-.36-1.34-.55-2.1-.55-2.28,0-2.25,3.56-3.38,10.67-3.38,0-6.75,1.52-10.13,4.56-10.13ZM319.3,88.76h1.19c2.47,0,4.47,2,4.47,4.47v1.19c0,3.35-1.31,5.02-3.92,5.02h0c-3.73,0-6.75-3.02-6.75-6.75h0c0-2.61,1.67-3.92,5.02-3.92Z"/><path d="M398.21,12.5c3.47,0,5.2,1.34,5.2,4.01v3.38c0,2.68-1.16,4.01-3.47,4.01-4.93-.37-7.39-1.12-7.39-2.28v-.55c0-5.35,1.13-8.03,3.38-8.03l2.28-.55ZM396.57,70.61h15.33c2.31.24,3.47.82,3.47,1.73v7.94l-.55,1.19c-4.5-.42-7.75-.64-9.76-.64h-2.28l-6.84.64c-1.09-1.4-1.64-2.74-1.64-4.01v-2.83c0-2.07.76-3.41,2.28-4.01ZM415.36.55h58.66c4.44-.49,5.96,5.2,4.56,17.06-.97,2.43-1.92,3.77-2.83,4.01h-15.42c-2.92,0-4.62.76-5.11,2.28v82.01c0,2.68,1.34,4.01,4.01,4.01h15.69c2.68,0,4.01,1.7,4.01,5.11v10.86c0,2.92-.76,4.62-2.28,5.11h-63.04c-.61,0-1.37-.76-2.28-2.28v-16.51c0-.61.76-1.37,2.28-2.28h15.96c1.95,0,3.07-.58,3.38-1.73v-1.1c0-1.15-2.83-1.92-8.48-2.28-.79-.97-1.19-1.55-1.19-1.73v-4.56c0-2.68,1.7-4.01,5.11-4.01h4.01c1.15,0,1.73-2.07,1.73-6.2v-34.21c0-.55.58-1.12,1.73-1.73h5.11c1.95,0,3.07-.55,3.38-1.64v-7.48c0-1.28-3.41-2.4-10.22-3.38v-10.86c0-4.93-1.7-7.39-5.11-7.39h-15.42c-.61,0-1.37-.76-2.28-2.28V2.83c.61-1.52,1.95-2.28,4.01-2.28ZM428.41,39.87c3.47.3,5.2.88,5.2,1.73v8.48c-.67,1.52-2.01,2.28-4.01,2.28h-1.19c-3.41,0-5.11-1.31-5.11-3.92v-4.56c0-2.67,1.7-4.01,5.11-4.01Z"/><path d="M466.17,5.38h6.84c1.16.37,1.73,1.49,1.73,3.38v4.56c0,2.68-1.34,4.01-4.01,4.01h-2.28c-3.41,0-5.11-2.86-5.11-8.58.55-1.52,1.49-2.65,2.83-3.38ZM500.29.27h77.91c3.77,0,5.66,1.52,5.66,4.56v8.48c0,5.72-1.52,8.58-4.56,8.58h-38.04c-1.16,0-1.73,2.07-1.73,6.2v100.62c-.49,1.52-2.19,2.28-5.11,2.28h-11.95c-2.92,0-4.62-.76-5.11-2.28v-27.82c0-.55.58-1.12,1.73-1.73h6.2c2.07,0,3.41-.76,4.01-2.28v-5.11c0-2.25-1.16-3.38-3.47-3.38h-7.39c-.73,0-1.09-.39-1.09-1.19v-39.23c0-4.5-1.34-6.75-4.01-6.75h-4.56c-.55,0-1.28-.76-2.19-2.28v-5.75c0-.55.73-1.31,2.19-2.28h4.56c2.68,0,4.01-1.49,4.01-4.47-.24-3.04-.82-4.56-1.73-4.56h-35.76c-2.8,0-4.32-.58-4.56-1.73v-1.09c0-.55.58-1.12,1.73-1.73h3.92c3.04,0,4.56-2.1,4.56-6.29s-3.22-6.2-9.67-6.2l-.55-1.19v-1.1l1.09-1.73c10.1-.37,18.06-.55,23.9-.55ZM494,59.39h6.84c4.56,0,6.84,1.34,6.84,4.01,0,.37.18.91.55,1.64,0,2.37-.94,4.07-2.83,5.11h-14.78c-2.68,0-4.01-1.7-4.01-5.11v-1.1c0-3.04,2.46-4.56,7.39-4.56ZM501.39,108.29h5.75c.55,0,1.31.76,2.28,2.28v6.2c-.79,1.52-1.73,2.28-2.83,2.28-4.93-.18-7.39-.94-7.39-2.28v-6.2c0-.61.73-1.37,2.19-2.28ZM510.51,88.4h5.66c.24,0,.82.37,1.73,1.09l-.55,2.83v4.56c-.49,1.52-2.19,2.28-5.11,2.28s-4.56-.76-4.56-2.28c0-5.66.94-8.48,2.83-8.48Z"/><path d="M563.15,86.48h9.12c3.47,0,5.2,1.34,5.2,4.01v4.56c0,.61-.76,1.37-2.28,2.28h-14.87c-2.68,0-4.01-1.34-4.01-4.01v-2.83c0-2.68,2.28-4.01,6.84-4.01ZM572.27,68.24c3.47,0,5.2,1.31,5.2,3.92v4.65c0,.55-.76,1.31-2.28,2.28h-5.75c-2.68,0-4.01-1.34-4.01-4.01v-4.01c0-1.64,2.28-2.58,6.84-2.83ZM575.74,6.02h13.14c2.61,0,3.92,1.31,3.92,3.92v2.92c0,2.62-1.31,3.92-3.92,3.92h-13.14c-2.07,0-3.41-.76-4.01-2.28v-6.2c.61-1.52,1.95-2.28,4.01-2.28ZM595.17.27h83.29l1.73,1.19-.55,3.92v1.19c0,3.04,3.41,4.56,10.22,4.56,1.15,0,1.92,3.22,2.28,9.67l2.92.64h5.11c1.52.61,2.28,1.92,2.28,3.92v14.32c0,3.04-1.52,4.56-4.56,4.56h-4.56c-1.16.37-1.73,1.49-1.73,3.38v4.56c0,.61-.76,1.37-2.28,2.28h-4.01c-2.92,0-4.81.97-5.66,2.92v4.01c0,3.04-3.04,4.56-9.12,4.56-.91,1.88-1.49,2.83-1.73,2.83.37.73.55,1.31.55,1.73,0,3.35-.94,5.44-2.83,6.29h-4.56c-2.68,0-4.01,1.7-4.01,5.11,0,3.04,1.12,4.56,3.38,4.56l4.01.55c4.01-.37,7.27-.55,9.76-.55,3.04,0,4.56,2.68,4.56,8.03,0,3.04,1.88,4.56,5.66,4.56h4.01c.61,0,1.37.76,2.28,2.28v4.56c.24,2.25.82,3.38,1.73,3.38h3.38c3.83,0,5.75,1.52,5.75,4.56v12.59c0,3.04-1.92,4.56-5.75,4.56h-10.22c-4.56,0-6.84-1.34-6.84-4.01,0-1.64-2.68-2.58-8.03-2.83-.73-.79-1.49-3.65-2.28-8.58,1.46-1.15,3.16-1.73,5.11-1.73h3.47c.3,0,.88-.58,1.73-1.73-.55-1.88-1.89-2.83-4.01-2.83h-13.68c-2.01,0-3.16-.58-3.47-1.73v-2.28c0-4.13-.58-6.2-1.73-6.2h-2.28c-4.56,0-6.84-1.34-6.84-4.01,0-4.99-.94-7.48-2.83-7.48-3.04,0-7.03-.18-11.95-.55-12.59.43-18.88,1.58-18.88,3.47v36.49c0,2.68-1.7,4.01-5.11,4.01h-9.12c-4.62,0-6.93-1.34-6.93-4.01v-11.95c0-.61.79-1.37,2.37-2.28h4.56c2.61,0,3.92-1.73,3.92-5.2v-1.64c0-2.07-.76-3.41-2.28-4.01h-6.2c-.61,0-1.4-.76-2.37-2.28v-42.24c0-2.13-.94-3.47-2.83-4.01-2.62.37-4.71.55-6.29.55-1.52-.49-2.28-2.01-2.28-4.56,0-4.56,1.52-6.84,4.56-6.84h5.2c1.09-.37,1.64-1.49,1.64-3.38v-19.98c0-.61.79-1.4,2.37-2.37h15.33c2.01,0,3.16-.55,3.47-1.64v-7.48c-.37-1.09-1.52-1.64-3.47-1.64h-15.33c-.61,0-1.4-.76-2.37-2.28v-1.19c0-.61.79-1.37,2.37-2.28ZM585.96,101.9h2.92c2.61,0,3.92,1.34,3.92,4.01v2.83c0,2.68-1.7,4.01-5.11,4.01-3.77,0-5.66-1.52-5.66-4.56v-1.19c0-3.41,1.31-5.11,3.92-5.11ZM613.96,26.55v35.4c0,2.25,1.15,3.38,3.47,3.38h27.92c1.52,0,2.46-3.22,2.83-9.67,6.51-.91,9.76-2.07,9.76-3.47,0-5.29,1.52-7.94,4.56-7.94,4.2,0,6.29-1.52,6.29-4.56,0-4.99,1.34-7.48,4.01-7.48,4.56,0,6.84-1.31,6.84-3.92v-3.47c0-1.95-.58-3.07-1.73-3.38h-59.94c-2.68,0-4.01,1.7-4.01,5.11Z"/><path d="M823.4,103.54h15.14c2.98,0,4.47,1.49,4.47,4.47v5.02c0,.61-.76,1.37-2.28,2.28h-16.24c-2.61,0-3.92-2.07-3.92-6.2.55-3.71,1.49-5.56,2.83-5.56ZM830.7,47.99h8.94c4.5,0,6.75,1.31,6.75,3.92v1.64c0,3.41-1.31,5.11-3.92,5.11h-14.6c-1.88-1.03-2.83-2.74-2.83-5.11,0-3.71,1.89-5.57,5.66-5.57ZM832.89,12.04c3.77,0,5.47,1.31,5.11,3.92l.55,2.83c0,2.62-1.31,3.92-3.92,3.92h-3.92c-2.62,0-3.92-1.31-3.92-3.92v-2.28c0-2.98,2.04-4.47,6.11-4.47ZM935.61.27h15.69c2.01,0,3.31.76,3.92,2.28v125.62c0,.37-.94,1.31-2.83,2.83-3.71-.37-6.51-.55-8.39-.55h-8.94c-.55,0-1.13-.58-1.73-1.73v-2.74c3.41-1.82,5.11-2.95,5.11-3.38v-.55c0-5.35-1.7-8.54-5.11-9.58-.43-2.98-1.16-4.47-2.19-4.47h-15.14c-3.04,0-4.56-3.38-4.56-10.13l-3.92-.55h-5.02c-.55,0-1.13-.55-1.73-1.64v-1.73c0-.36.21-.55.64-.55-.85-4.13-1.61-6.2-2.28-6.2h-4.47c-3.41,0-5.11-1.12-5.11-3.38l.64-2.74c0-4.14-1.52-6.2-4.56-6.2h-4.47c-1.46,0-2.19-2.25-2.19-6.75v-2.19c0-.79-.4-1.19-1.19-1.19h-7.3c-.49,0-1.04.58-1.64,1.73v58.84c0,3.41-1.31,5.11-3.92,5.11h-14.6c-2.01,0-3.32-.76-3.92-2.28V60.85c0-.55.76-1.28,2.28-2.19h17.33c1.88-.97,2.83-2.49,2.83-4.56v-2.19c0-2.62-1.31-3.92-3.92-3.92h-16.88c-1.09-.37-1.64-1.49-1.64-3.38V4.2c0-.61.76-1.37,2.28-2.28h17.88c1.52.55,2.28,2.25,2.28,5.11v33.66c0,.55.55,1.09,1.64,1.64h1.19c2.55,0,4.77.18,6.66.55,1.95-.36,4.2-.55,6.75-.55,2.98,0,4.47,2.07,4.47,6.2,0,3.71,1.12,5.57,3.38,5.57h6.2c.61,0,1.37.76,2.28,2.28v4.47c0,2.62,1.31,3.92,3.92,3.92h4.47c.55,0,1.28.76,2.19,2.28v6.2c0,.49.58,1.03,1.73,1.64h3.38c3.71,0,5.56,1.86,5.56,5.57v3.38c.37,1.16,1.49,1.73,3.38,1.73h5.11c.49,0,1.03-.58,1.64-1.73v-48.26c0-3.71,2.25-5.57,6.75-5.57,2.61,0,3.92-.55,3.92-1.64v-6.75c0-.55-.58-1.12-1.73-1.73h-3.92c-3.35,0-5.02-1.85-5.02-5.56V5.93c0-2.92.94-4.8,2.83-5.66ZM924.94,19.89h4.47c2.25.24,3.38.82,3.38,1.73v6.75c0,.49-.55,1.04-1.64,1.64h-6.2c-.61,0-1.37-.76-2.28-2.28v-5.56c0-.61.76-1.37,2.28-2.28ZM929.41,114.13h1.73c.49,0,1.03.58,1.64,1.73v6.75c-.37,1.09-1.49,1.64-3.38,1.64-.55,0-1.28-.73-2.19-2.19v-5.66c0-.61.73-1.37,2.19-2.28Z"/><path d="M953.31,12.5c3.47,0,5.2,1.34,5.2,4.01v3.38c0,2.68-1.16,4.01-3.47,4.01-4.93-.37-7.39-1.12-7.39-2.28v-.55c0-5.35,1.13-8.03,3.38-8.03l2.28-.55ZM951.67,70.61h15.33c2.31.24,3.47.82,3.47,1.73v7.94l-.55,1.19c-4.5-.42-7.75-.64-9.76-.64h-2.28l-6.84.64c-1.09-1.4-1.64-2.74-1.64-4.01v-2.83c0-2.07.76-3.41,2.28-4.01ZM970.46.55h58.66c4.44-.49,5.96,5.2,4.56,17.06-.97,2.43-1.92,3.77-2.83,4.01h-15.42c-2.92,0-4.62.76-5.11,2.28v82.01c0,2.68,1.34,4.01,4.01,4.01h15.69c2.68,0,4.01,1.7,4.01,5.11v10.86c0,2.92-.76,4.62-2.28,5.11h-63.04c-.61,0-1.37-.76-2.28-2.28v-16.51c0-.61.76-1.37,2.28-2.28h15.96c1.95,0,3.07-.58,3.38-1.73v-1.1c0-1.15-2.83-1.92-8.48-2.28-.79-.97-1.19-1.55-1.19-1.73v-4.56c0-2.68,1.7-4.01,5.11-4.01h4.01c1.15,0,1.73-2.07,1.73-6.2v-34.21c0-.55.58-1.12,1.73-1.73h5.11c1.95,0,3.07-.55,3.38-1.64v-7.48c0-1.28-3.41-2.4-10.22-3.38v-10.86c0-4.93-1.7-7.39-5.11-7.39h-15.42c-.61,0-1.37-.76-2.28-2.28V2.83c.61-1.52,1.95-2.28,4.01-2.28ZM983.51,39.87c3.47.3,5.2.88,5.2,1.73v8.48c-.67,1.52-2.01,2.28-4.01,2.28h-1.19c-3.41,0-5.11-1.31-5.11-3.92v-4.56c0-2.67,1.7-4.01,5.11-4.01Z"/><path d="M1026.57,96.61h17.42c1.52.61,2.28,1.92,2.28,3.92v2.28c0,2.01-.76,3.32-2.28,3.92h-15.24c-2.61,0-3.92-1.67-3.92-5.02v-3.38c0-.55.58-1.12,1.73-1.73ZM1027.66,63.4h3.92c2.01,0,3.31.73,3.92,2.19v4.56c0,2.62-2.07,3.92-6.2,3.92-2.61-.49-3.92-1.25-3.92-2.28v-6.2c0-.55.76-1.28,2.28-2.19ZM1041.16,31.84h5.66c.61,0,1.37.76,2.28,2.28v6.2c-.55,1.46-2.25,2.19-5.11,2.19s-4.56-.73-5.11-2.19v-6.2c0-.61.76-1.37,2.28-2.28ZM1075.55.27h56.93c2.61,0,3.92,2.43,3.92,7.3l.55,3.38h7.3c.61,0,1.37.76,2.28,2.28v3.92c0,3.77,1.31,5.66,3.92,5.66.73,0,2.07-.36,4.01-1.09,1.88.49,2.83,1.79,2.83,3.92v15.78c0,.61-.76,1.37-2.28,2.28h-16.33c-.61,0-1.37-.76-2.28-2.28v-14.14c0-2.98-1.13-4.47-3.38-4.47h-58.02c-2.25,0-3.38,1.13-3.38,3.38v60.3c0,.61-.76,1.37-2.28,2.28h-4.47c-2.68,0-4.01,1.67-4.01,5.02v.64c0,2.86.76,4.53,2.28,5.02h6.2c1.52,0,2.46,2.83,2.83,8.48l2.83.55h58.02c2.25,0,3.38-1.49,3.38-4.47v-14.14c0-.61.76-1.37,2.28-2.28h16.33c.55,0,1.31.76,2.28,2.28v14.69c0,2.62-1.34,3.92-4.01,3.92h-3.92c-1.89.85-2.83,2.74-2.83,5.66v3.92c0,.61-.76,1.37-2.28,2.28h-4.47c-2.25.24-3.38.79-3.38,1.64v4.56c0,2.01-.94,3.5-2.83,4.47h-58.02c-2.62,0-3.92-1.31-3.92-3.92v-5.11c0-1.1-3.41-1.86-10.22-2.28-.73-1.22-1.09-2.34-1.09-3.38,0-.37.18-.55.55-.55,0-4.87-1.31-7.3-3.92-7.3-5.23,0-7.85-1.12-7.85-3.38v-58.66c0-2.01.73-3.31,2.19-3.92h6.2c1.95,0,3.07-.55,3.38-1.64v-7.39c0-.49-.55-1.03-1.64-1.64h-6.2c-2.62,0-3.92-1.31-3.92-3.92v-1.19c0-2.98,3.19-4.47,9.58-4.47,1.46-2.07,2.19-4.13,2.19-6.2-.37-1.34-.55-2.1-.55-2.28,0-2.25,3.56-3.38,10.67-3.38,0-6.75,1.52-10.13,4.56-10.13ZM1076.65,88.76h1.19c2.98,0,4.47,1.49,4.47,4.47v1.19c0,3.35-1.31,5.02-3.92,5.02h-2.83c-2.62,0-3.92-1.31-3.92-3.92v-2.83c0-2.61,1.67-3.92,5.02-3.92Z"/><path d="M735.65,1.85c.47.54,1.25.58,1.74,1.11.14.15.99,1.64.99,1.74v12.02h7.44V4.7c0-.1.84-1.59.99-1.74.49-.53,1.28-.56,1.74-1.11h1.98c.47.54,1.25.58,1.74,1.11.14.15.99,1.64.99,1.74v12.02h7.44V4.7c0-.1.84-1.59.99-1.74.49-.53,1.28-.56,1.74-1.11h1.98c.47.54,1.25.58,1.74,1.11.14.15.99,1.64.99,1.74v12.02h7.44V4.7c0-.1.84-1.59.99-1.74.49-.53,1.28-.56,1.74-1.11h1.98c.47.54,1.25.58,1.74,1.11.14.15.99,1.64.99,1.74v12.02h7.44V4.7c0-.1.84-1.59.99-1.74.49-.53,1.28-.56,1.74-1.11h1.98c.47.54,1.25.58,1.74,1.11.14.15.99,1.64.99,1.74v12.02h7.81c2.84,0,7.31,4.48,7.31,7.31v7.81h12.02c.1,0,1.59.84,1.74.99.53.49.56,1.28,1.11,1.74v1.98c-.54.47-.58,1.25-1.11,1.74-.15.14-1.64.99-1.74.99h-12.02v7.44h12.02c.1,0,1.59.84,1.74.99.53.49.56,1.28,1.11,1.74v1.98c-.54.47-.58,1.25-1.11,1.74-.15.14-1.64.99-1.74.99h-12.02v7.44h12.02c.1,0,1.59.84,1.74.99.53.49.56,1.28,1.11,1.74v1.98c-.54.47-.58,1.25-1.11,1.74-.15.14-1.64.99-1.74.99h-12.02v7.44h12.02c.1,0,1.59.84,1.74.99.53.49.56,1.28,1.11,1.74v1.98c-.54.47-.58,1.25-1.11,1.74-.15.14-1.64.99-1.74.99h-12.02v7.44h12.02c.1,0,1.59.84,1.74.99.53.49.56,1.28,1.11,1.74v1.98c-.54.47-.58,1.25-1.11,1.74-.15.14-1.64.99-1.74.99h-12.02v7.81c0,2.84-4.48,7.31-7.31,7.31h-7.81v12.02c0,.17-.98,1.75-1.25,1.97-1.43,1.19-3.71,1.17-5.08-.11-.19-.18-1.11-1.76-1.11-1.87v-12.02h-7.44v12.02c0,.17-.98,1.75-1.25,1.97-1.43,1.19-3.71,1.17-5.08-.11-.19-.18-1.11-1.76-1.11-1.87v-12.02h-7.44v12.02c0,.17-.98,1.75-1.25,1.97-1.43,1.19-3.71,1.17-5.08-.11-.19-.18-1.11-1.76-1.11-1.87v-12.02h-7.44v12.02c0,.17-.98,1.75-1.25,1.97-1.43,1.19-3.71,1.17-5.08-.11-.19-.18-1.11-1.76-1.11-1.87v-12.02h-7.44v12.02c0,.17-.98,1.75-1.25,1.97-1.43,1.19-3.71,1.17-5.08-.11-.19-.18-1.11-1.76-1.11-1.87v-12.02h-7.81c-2.84,0-7.31-4.48-7.31-7.31v-7.81h-12.02c-.17,0-1.75-.98-1.97-1.25-1.19-1.43-1.17-3.71.11-5.08.18-.19,1.76-1.11,1.87-1.11h12.02v-7.44h-12.02c-.17,0-1.75-.98-1.97-1.25-1.19-1.43-1.17-3.71.11-5.08.18-.19,1.76-1.11,1.87-1.11h12.02v-7.44h-12.02c-.17,0-1.75-.98-1.97-1.25-1.19-1.43-1.17-3.71.11-5.08.18-.19,1.76-1.11,1.87-1.11h12.02v-7.44h-12.02c-.17,0-1.75-.98-1.97-1.25-1.19-1.43-1.17-3.71.11-5.08.18-.19,1.76-1.11,1.87-1.11h12.02v-7.44h-12.02c-.17,0-1.75-.98-1.97-1.25-1.19-1.43-1.17-3.71.11-5.08.18-.19,1.76-1.11,1.87-1.11h12.02v-7.81c0-2.84,4.47-7.31,7.31-7.31h7.81V4.7c0-.1.84-1.59.99-1.74.49-.53,1.28-.56,1.74-1.11h1.98ZM733.6,31.66c-1.65.51-2.61,1.56-2.91,3.28v60.51c.2,2.07,1.52,3.39,3.59,3.59h60.26c2.07-.2,3.39-1.52,3.59-3.59v-60.26c-.2-2.07-1.52-3.39-3.59-3.59l-60.94.07Z"/><rect x="738.13" y="39.04" width="52.55" height="52.55"/><path class="e" d="M6.84,86.48h9.12c3.47,0,5.2,1.34,5.2,4.01v4.56c0,.61-.76,1.37-2.28,2.28H4.01c-2.68,0-4.01-1.34-4.01-4.01v-2.83c0-2.68,2.28-4.01,6.84-4.01ZM15.96,68.24c3.47,0,5.2,1.31,5.2,3.92v4.65c0,.55-.76,1.31-2.28,2.28h-5.75c-2.68,0-4.01-1.34-4.01-4.01v-4.01c0-1.64,2.28-2.58,6.84-2.83ZM19.43,6.02h13.14c2.61,0,3.92,1.31,3.92,3.92v2.92c0,2.62-1.31,3.92-3.92,3.92h-13.14c-2.07,0-3.41-.76-4.01-2.28v-6.2c.61-1.52,1.95-2.28,4.01-2.28ZM38.86.27h83.29l1.73,1.19-.55,3.92v1.19c0,3.04,3.41,4.56,10.22,4.56,1.15,0,1.92,3.22,2.28,9.67l2.92.64h5.11c1.52.61,2.28,1.92,2.28,3.92v14.32c0,3.04-1.52,4.56-4.56,4.56h-4.56c-1.16.37-1.73,1.49-1.73,3.38v4.56c0,.61-.76,1.37-2.28,2.28h-4.01c-2.92,0-4.81.97-5.66,2.92v4.01c0,3.04-3.04,4.56-9.12,4.56-.91,1.88-1.49,2.83-1.73,2.83.36.73.55,1.31.55,1.73,0,3.35-.94,5.44-2.83,6.29h-4.56c-2.68,0-4.01,1.7-4.01,5.11,0,3.04,1.12,4.56,3.38,4.56l4.01.55c4.01-.37,7.27-.55,9.76-.55,3.04,0,4.56,2.68,4.56,8.03,0,3.04,1.88,4.56,5.66,4.56h4.01c.61,0,1.37.76,2.28,2.28v4.56c.24,2.25.82,3.38,1.73,3.38h3.38c3.83,0,5.75,1.52,5.75,4.56v12.59c0,3.04-1.92,4.56-5.75,4.56h-10.22c-4.56,0-6.84-1.34-6.84-4.01,0-1.64-2.68-2.58-8.03-2.83-.73-.79-1.49-3.65-2.28-8.58,1.46-1.15,3.16-1.73,5.11-1.73h3.47c.3,0,.88-.58,1.73-1.73-.55-1.88-1.89-2.83-4.01-2.83h-13.68c-2.01,0-3.16-.58-3.47-1.73v-2.28c0-4.13-.58-6.2-1.73-6.2h-2.28c-4.56,0-6.84-1.34-6.84-4.01,0-4.99-.94-7.48-2.83-7.48-3.04,0-7.02-.18-11.95-.55-12.59.43-18.88,1.58-18.88,3.47v36.49c0,2.68-1.7,4.01-5.11,4.01h-9.12c-4.62,0-6.93-1.34-6.93-4.01v-11.95c0-.61.79-1.37,2.37-2.28h4.56c2.61,0,3.92-1.73,3.92-5.2v-1.64c0-2.07-.76-3.41-2.28-4.01h-6.2c-.61,0-1.4-.76-2.37-2.28v-42.24c0-2.13-.94-3.47-2.83-4.01-2.62.37-4.71.55-6.29.55-1.52-.49-2.28-2.01-2.28-4.56,0-4.56,1.52-6.84,4.56-6.84h5.2c1.09-.37,1.64-1.49,1.64-3.38v-19.98c0-.61.79-1.4,2.37-2.37h15.33c2.01,0,3.16-.55,3.47-1.64v-7.48c-.36-1.09-1.52-1.64-3.47-1.64h-15.33c-.61,0-1.4-.76-2.37-2.28v-1.19c0-.61.79-1.37,2.37-2.28ZM29.65,101.9h2.92c2.61,0,3.92,1.34,3.92,4.01v2.83c0,2.68-1.7,4.01-5.11,4.01-3.77,0-5.66-1.52-5.66-4.56v-1.19c0-3.41,1.31-5.11,3.92-5.11ZM57.66,26.55v35.4c0,2.25,1.15,3.38,3.47,3.38h27.92c1.52,0,2.46-3.22,2.83-9.67,6.51-.91,9.76-2.07,9.76-3.47,0-5.29,1.52-7.94,4.56-7.94,4.2,0,6.29-1.52,6.29-4.56,0-4.99,1.34-7.48,4.01-7.48,4.56,0,6.84-1.31,6.84-3.92v-3.47c0-1.95-.58-3.07-1.73-3.38h-59.94c-2.68,0-4.01,1.7-4.01,5.11Z"/><path class="e" d="M142.5,115.77h10.67c3.41,0,5.11,1.31,5.11,3.92v.55c0,3.43-2.78,6.2-6.2,6.2h-10.77c-1.64,0-2.82-.49-3.52-1.47-.27-.38-.4-.84-.4-1.3v-3.98c0-2.61,1.7-3.92,5.11-3.92ZM150.34,63.22h14.69c2.68,0,4.01,1.7,4.01,5.11v.55c0,3.41-1.89,5.11-5.66,5.11h-9.58c-4.07,0-6.48-.81-7.24-2.44-.12-.25-.15-.53-.15-.8v-4.72c0-.34.06-.69.22-.98.68-1.21,1.91-1.81,3.7-1.81ZM154.35,90.77h1.09c3.41,0,5.11,1.31,5.11,3.92v4.47c0,.51-.55,1.14-1.64,1.87-.39.26-.84.41-1.31.41h-2.71c-3.43,0-6.2-2.78-6.2-6.2v-1.12c0-.47.13-.93.4-1.31.98-1.36,2.73-2.05,5.25-2.05ZM160.28,10.4h1.09c3.41,0,5.11,1.31,5.11,3.92v4.47c0,.52-.55,1.14-1.64,1.87-.39.26-.84.41-1.3.41h-2.71c-3.43,0-6.2-2.78-6.2-6.2v-1.12c0-.47.13-.93.4-1.31.98-1.36,2.73-2.05,5.25-2.05ZM172.97,0h101.03c.45,0,.9.13,1.28.38,1.43.98,2.14,2.73,2.14,5.27v11.31c0,3.77-2.25,5.66-6.75,5.66h-75.08c-3.12,0-5.66,2.53-5.66,5.66v24.27c0,2.25,1.49,3.38,4.47,3.38h57.62c.46,0,.93.13,1.3.4.98.71,1.47,1.88,1.47,3.52v12.96c0,3.77-1.86,5.66-5.56,5.66h-57.66c-.44,0-.88.37-1.31,1.11-.21.36-.33.77-.33,1.19v21.97c0,3.12,2.53,5.66,5.66,5.66h77.91c2.61,0,3.92,2.28,3.92,6.84v10.13c0,2.54-.71,4.3-2.14,5.27-.37.26-.82.38-1.28.38h-101.04c-1.79,0-3.02-.6-3.7-1.81-.17-.3-.22-.64-.22-.98v-50.73c0-.08,0-.16.01-.24.19-2.17.74-3.25,1.63-3.25h14.69c3.04,0,4.56-1.12,4.56-3.38v-5.66c0-.43-.36-.89-1.09-1.36-.37-.24-.82-.37-1.26-.37h-16.35c-.47,0-1.06-.55-1.79-1.65-.25-.38-.4-.83-.4-1.29V23.17c0-1.52,2.25-2.28,6.75-2.28h0c1.86,0,3.38-1.51,3.38-3.38v-5.11c0-.44-.37-.88-1.11-1.32-.36-.21-.77-.33-1.19-.33h-2.81c-2.42,0-3.98-.54-4.71-1.63-.22-.34-.31-.75-.31-1.16V2.8c0-.34.06-.69.22-.98.68-1.21,1.91-1.81,3.7-1.81ZM222.68,25.45h1.09c3.41,0,5.11,1.31,5.11,3.92v4.47c0,.52-.55,1.14-1.64,1.87-.39.26-.84.41-1.3.41h-2.71c-3.43,0-6.2-2.78-6.2-6.2v-1.12c0-.47.13-.93.4-1.31.98-1.36,2.73-2.05,5.25-2.05Z"/><path class="e" d="M269.21,96.61h17.42c1.52.61,2.28,1.92,2.28,3.92v2.28c0,2.01-.76,3.32-2.28,3.92h-15.24c-2.61,0-3.92-1.67-3.92-5.02v-3.38c0-.55.58-1.12,1.73-1.73ZM270.31,63.4h3.92c2.01,0,3.31.73,3.92,2.19v4.56c0,2.62-2.07,3.92-6.2,3.92-2.61-.49-3.92-1.25-3.92-2.28v-6.2c0-.55.76-1.28,2.28-2.19ZM283.81,31.84h5.66c.61,0,1.37.76,2.28,2.28v6.2c-.55,1.46-2.25,2.19-5.11,2.19s-4.56-.73-5.11-2.19v-6.2c0-.61.76-1.37,2.28-2.28ZM318.2.27h56.93c2.61,0,3.92,2.43,3.92,7.3l.55,3.38h7.3c.61,0,1.37.76,2.28,2.28v3.92c0,3.77,1.31,5.66,3.92,5.66.73,0,2.07-.36,4.01-1.09,1.88.49,2.83,1.79,2.83,3.92v15.78c0,.61-.76,1.37-2.28,2.28h-16.33c-.61,0-1.37-.76-2.28-2.28v-14.14c0-2.98-1.13-4.47-3.38-4.47h-58.02c-2.25,0-3.38,1.13-3.38,3.38v60.3c0,.61-.76,1.37-2.28,2.28h-4.47c-2.68,0-4.01,1.67-4.01,5.02v.64c0,2.86.76,4.53,2.28,5.02h6.2c1.52,0,2.46,2.83,2.83,8.48l2.83.55h58.02c2.25,0,3.38-1.49,3.38-4.47v-14.14c0-.61.76-1.37,2.28-2.28h16.33c.55,0,1.31.76,2.28,2.28v14.69c0,2.62-1.34,3.92-4.01,3.92h-3.92c-1.89.85-2.83,2.74-2.83,5.66v3.92c0,.61-.76,1.37-2.28,2.28h-4.47c-2.25.24-3.38.79-3.38,1.64v4.56c0,2.01-.94,3.5-2.83,4.47h-58.02c-2.62,0-3.92-1.31-3.92-3.92v-5.11c0-1.1-3.41-1.86-10.22-2.28-.73-1.22-1.09-2.34-1.09-3.38,0-.37.18-.55.55-.55,0-4.87-1.31-7.3-3.92-7.3-5.23,0-7.85-1.12-7.85-3.38v-58.66c0-2.01.73-3.31,2.19-3.92h6.2c1.95,0,3.07-.55,3.38-1.64v-7.39c0-.49-.55-1.03-1.64-1.64h-6.2c-2.62,0-3.92-1.31-3.92-3.92v-1.19c0-2.98,3.19-4.47,9.58-4.47,1.46-2.07,2.19-4.13,2.19-6.2-.36-1.34-.55-2.1-.55-2.28,0-2.25,3.56-3.38,10.67-3.38,0-6.75,1.52-10.13,4.56-10.13ZM319.3,88.76h1.19c2.47,0,4.47,2,4.47,4.47v1.19c0,3.35-1.31,5.02-3.92,5.02h0c-3.73,0-6.75-3.02-6.75-6.75h0c0-2.61,1.67-3.92,5.02-3.92Z"/><path class="e" d="M398.21,12.5c3.47,0,5.2,1.34,5.2,4.01v3.38c0,2.68-1.16,4.01-3.47,4.01-4.93-.37-7.39-1.12-7.39-2.28v-.55c0-5.35,1.13-8.03,3.38-8.03l2.28-.55ZM396.57,70.61h15.33c2.31.24,3.47.82,3.47,1.73v7.94l-.55,1.19c-4.5-.42-7.75-.64-9.76-.64h-2.28l-6.84.64c-1.09-1.4-1.64-2.74-1.64-4.01v-2.83c0-2.07.76-3.41,2.28-4.01ZM415.36.55h58.66c4.44-.49,5.96,5.2,4.56,17.06-.97,2.43-1.92,3.77-2.83,4.01h-15.42c-2.92,0-4.62.76-5.11,2.28v82.01c0,2.68,1.34,4.01,4.01,4.01h15.69c2.68,0,4.01,1.7,4.01,5.11v10.86c0,2.92-.76,4.62-2.28,5.11h-63.04c-.61,0-1.37-.76-2.28-2.28v-16.51c0-.61.76-1.37,2.28-2.28h15.96c1.95,0,3.07-.58,3.38-1.73v-1.1c0-1.15-2.83-1.92-8.48-2.28-.79-.97-1.19-1.55-1.19-1.73v-4.56c0-2.68,1.7-4.01,5.11-4.01h4.01c1.15,0,1.73-2.07,1.73-6.2v-34.21c0-.55.58-1.12,1.73-1.73h5.11c1.95,0,3.07-.55,3.38-1.64v-7.48c0-1.28-3.41-2.4-10.22-3.38v-10.86c0-4.93-1.7-7.39-5.11-7.39h-15.42c-.61,0-1.37-.76-2.28-2.28V2.83c.61-1.52,1.95-2.28,4.01-2.28ZM428.41,39.87c3.47.3,5.2.88,5.2,1.73v8.48c-.67,1.52-2.01,2.28-4.01,2.28h-1.19c-3.41,0-5.11-1.31-5.11-3.92v-4.56c0-2.67,1.7-4.01,5.11-4.01Z"/><path class="e" d="M466.17,5.38h6.84c1.16.37,1.73,1.49,1.73,3.38v4.56c0,2.68-1.34,4.01-4.01,4.01h-2.28c-3.41,0-5.11-2.86-5.11-8.58.55-1.52,1.49-2.65,2.83-3.38ZM500.29.27h77.91c3.77,0,5.66,1.52,5.66,4.56v8.48c0,5.72-1.52,8.58-4.56,8.58h-38.04c-1.16,0-1.73,2.07-1.73,6.2v100.62c-.49,1.52-2.19,2.28-5.11,2.28h-11.95c-2.92,0-4.62-.76-5.11-2.28v-27.82c0-.55.58-1.12,1.73-1.73h6.2c2.07,0,3.41-.76,4.01-2.28v-5.11c0-2.25-1.16-3.38-3.47-3.38h-7.39c-.73,0-1.09-.39-1.09-1.19v-39.23c0-4.5-1.34-6.75-4.01-6.75h-4.56c-.55,0-1.28-.76-2.19-2.28v-5.75c0-.55.73-1.31,2.19-2.28h4.56c2.68,0,4.01-1.49,4.01-4.47-.24-3.04-.82-4.56-1.73-4.56h-35.76c-2.8,0-4.32-.58-4.56-1.73v-1.09c0-.55.58-1.12,1.73-1.73h3.92c3.04,0,4.56-2.1,4.56-6.29s-3.22-6.2-9.67-6.2l-.55-1.19v-1.1l1.09-1.73c10.1-.37,18.06-.55,23.9-.55ZM494,59.39h6.84c4.56,0,6.84,1.34,6.84,4.01,0,.37.18.91.55,1.64,0,2.37-.94,4.07-2.83,5.11h-14.78c-2.68,0-4.01-1.7-4.01-5.11v-1.1c0-3.04,2.46-4.56,7.39-4.56ZM501.39,108.29h5.75c.55,0,1.31.76,2.28,2.28v6.2c-.79,1.52-1.73,2.28-2.83,2.28-4.93-.18-7.39-.94-7.39-2.28v-6.2c0-.61.73-1.37,2.19-2.28ZM510.51,88.4h5.66c.24,0,.82.37,1.73,1.09l-.55,2.83v4.56c-.49,1.52-2.19,2.28-5.11,2.28s-4.56-.76-4.56-2.28c0-5.66.94-8.48,2.83-8.48Z"/><path class="e" d="M563.15,86.48h9.12c3.47,0,5.2,1.34,5.2,4.01v4.56c0,.61-.76,1.37-2.28,2.28h-14.87c-2.68,0-4.01-1.34-4.01-4.01v-2.83c0-2.68,2.28-4.01,6.84-4.01ZM572.27,68.24c3.47,0,5.2,1.31,5.2,3.92v4.65c0,.55-.76,1.31-2.28,2.28h-5.75c-2.68,0-4.01-1.34-4.01-4.01v-4.01c0-1.64,2.28-2.58,6.84-2.83ZM575.74,6.02h13.14c2.61,0,3.92,1.31,3.92,3.92v2.92c0,2.62-1.31,3.92-3.92,3.92h-13.14c-2.07,0-3.41-.76-4.01-2.28v-6.2c.61-1.52,1.95-2.28,4.01-2.28ZM595.17.27h83.29l1.73,1.19-.55,3.92v1.19c0,3.04,3.41,4.56,10.22,4.56,1.15,0,1.92,3.22,2.28,9.67l2.92.64h5.11c1.52.61,2.28,1.92,2.28,3.92v14.32c0,3.04-1.52,4.56-4.56,4.56h-4.56c-1.16.37-1.73,1.49-1.73,3.38v4.56c0,.61-.76,1.37-2.28,2.28h-4.01c-2.92,0-4.81.97-5.66,2.92v4.01c0,3.04-3.04,4.56-9.12,4.56-.91,1.88-1.49,2.83-1.73,2.83.37.73.55,1.31.55,1.73,0,3.35-.94,5.44-2.83,6.29h-4.56c-2.68,0-4.01,1.7-4.01,5.11,0,3.04,1.12,4.56,3.38,4.56l4.01.55c4.01-.37,7.27-.55,9.76-.55,3.04,0,4.56,2.68,4.56,8.03,0,3.04,1.88,4.56,5.66,4.56h4.01c.61,0,1.37.76,2.28,2.28v4.56c.24,2.25.82,3.38,1.73,3.38h3.38c3.83,0,5.75,1.52,5.75,4.56v12.59c0,3.04-1.92,4.56-5.75,4.56h-10.22c-4.56,0-6.84-1.34-6.84-4.01,0-1.64-2.68-2.58-8.03-2.83-.73-.79-1.49-3.65-2.28-8.58,1.46-1.15,3.16-1.73,5.11-1.73h3.47c.3,0,.88-.58,1.73-1.73-.55-1.88-1.89-2.83-4.01-2.83h-13.68c-2.01,0-3.16-.58-3.47-1.73v-2.28c0-4.13-.58-6.2-1.73-6.2h-2.28c-4.56,0-6.84-1.34-6.84-4.01,0-4.99-.94-7.48-2.83-7.48-3.04,0-7.03-.18-11.95-.55-12.59.43-18.88,1.58-18.88,3.47v36.49c0,2.68-1.7,4.01-5.11,4.01h-9.12c-4.62,0-6.93-1.34-6.93-4.01v-11.95c0-.61.79-1.37,2.37-2.28h4.56c2.61,0,3.92-1.73,3.92-5.2v-1.64c0-2.07-.76-3.41-2.28-4.01h-6.2c-.61,0-1.4-.76-2.37-2.28v-42.24c0-2.13-.94-3.47-2.83-4.01-2.62.37-4.71.55-6.29.55-1.52-.49-2.28-2.01-2.28-4.56,0-4.56,1.52-6.84,4.56-6.84h5.2c1.09-.37,1.64-1.49,1.64-3.38v-19.98c0-.61.79-1.4,2.37-2.37h15.33c2.01,0,3.16-.55,3.47-1.64v-7.48c-.37-1.09-1.52-1.64-3.47-1.64h-15.33c-.61,0-1.4-.76-2.37-2.28v-1.19c0-.61.79-1.37,2.37-2.28ZM585.96,101.9h2.92c2.61,0,3.92,1.34,3.92,4.01v2.83c0,2.68-1.7,4.01-5.11,4.01-3.77,0-5.66-1.52-5.66-4.56v-1.19c0-3.41,1.31-5.11,3.92-5.11ZM613.96,26.55v35.4c0,2.25,1.15,3.38,3.47,3.38h27.92c1.52,0,2.46-3.22,2.83-9.67,6.51-.91,9.76-2.07,9.76-3.47,0-5.29,1.52-7.94,4.56-7.94,4.2,0,6.29-1.52,6.29-4.56,0-4.99,1.34-7.48,4.01-7.48,4.56,0,6.84-1.31,6.84-3.92v-3.47c0-1.95-.58-3.07-1.73-3.38h-59.94c-2.68,0-4.01,1.7-4.01,5.11Z"/><path class="e" d="M823.4,103.54h15.14c2.98,0,4.47,1.49,4.47,4.47v5.02c0,.61-.76,1.37-2.28,2.28h-16.24c-2.61,0-3.92-2.07-3.92-6.2.55-3.71,1.49-5.56,2.83-5.56ZM830.7,47.99h8.94c4.5,0,6.75,1.31,6.75,3.92v1.64c0,3.41-1.31,5.11-3.92,5.11h-14.6c-1.88-1.03-2.83-2.74-2.83-5.11,0-3.71,1.89-5.57,5.66-5.57ZM832.89,12.04c3.77,0,5.47,1.31,5.11,3.92l.55,2.83c0,2.62-1.31,3.92-3.92,3.92h-3.92c-2.62,0-3.92-1.31-3.92-3.92v-2.28c0-2.98,2.04-4.47,6.11-4.47ZM935.61.27h15.69c2.01,0,3.31.76,3.92,2.28v125.62c0,.37-.94,1.31-2.83,2.83-3.71-.37-6.51-.55-8.39-.55h-8.94c-.55,0-1.13-.58-1.73-1.73v-2.74c3.41-1.82,5.11-2.95,5.11-3.38v-.55c0-5.35-1.7-8.54-5.11-9.58-.43-2.98-1.16-4.47-2.19-4.47h-15.14c-3.04,0-4.56-3.38-4.56-10.13l-3.92-.55h-5.02c-.55,0-1.13-.55-1.73-1.64v-1.73c0-.36.21-.55.64-.55-.85-4.13-1.61-6.2-2.28-6.2h-4.47c-3.41,0-5.11-1.12-5.11-3.38l.64-2.74c0-4.14-1.52-6.2-4.56-6.2h-4.47c-1.46,0-2.19-2.25-2.19-6.75v-2.19c0-.79-.4-1.19-1.19-1.19h-7.3c-.49,0-1.04.58-1.64,1.73v58.84c0,3.41-1.31,5.11-3.92,5.11h-14.6c-2.01,0-3.32-.76-3.92-2.28V60.85c0-.55.76-1.28,2.28-2.19h17.33c1.88-.97,2.83-2.49,2.83-4.56v-2.19c0-2.62-1.31-3.92-3.92-3.92h-16.88c-1.09-.37-1.64-1.49-1.64-3.38V4.2c0-.61.76-1.37,2.28-2.28h17.88c1.52.55,2.28,2.25,2.28,5.11v33.66c0,.55.55,1.09,1.64,1.64h1.19c2.55,0,4.77.18,6.66.55,1.95-.36,4.2-.55,6.75-.55,2.98,0,4.47,2.07,4.47,6.2,0,3.71,1.12,5.57,3.38,5.57h6.2c.61,0,1.37.76,2.28,2.28v4.47c0,2.62,1.31,3.92,3.92,3.92h4.47c.55,0,1.28.76,2.19,2.28v6.2c0,.49.58,1.03,1.73,1.64h3.38c3.71,0,5.56,1.86,5.56,5.57v3.38c.37,1.16,1.49,1.73,3.38,1.73h5.11c.49,0,1.03-.58,1.64-1.73v-48.26c0-3.71,2.25-5.57,6.75-5.57,2.61,0,3.92-.55,3.92-1.64v-6.75c0-.55-.58-1.12-1.73-1.73h-3.92c-3.35,0-5.02-1.85-5.02-5.56V5.93c0-2.92.94-4.8,2.83-5.66ZM924.94,19.89h4.47c2.25.24,3.38.82,3.38,1.73v6.75c0,.49-.55,1.04-1.64,1.64h-6.2c-.61,0-1.37-.76-2.28-2.28v-5.56c0-.61.76-1.37,2.28-2.28ZM929.41,114.13h1.73c.49,0,1.03.58,1.64,1.73v6.75c-.37,1.09-1.49,1.64-3.38,1.64-.55,0-1.28-.73-2.19-2.19v-5.66c0-.61.73-1.37,2.19-2.28Z"/><path class="e" d="M953.31,12.5c3.47,0,5.2,1.34,5.2,4.01v3.38c0,2.68-1.16,4.01-3.47,4.01-4.93-.37-7.39-1.12-7.39-2.28v-.55c0-5.35,1.13-8.03,3.38-8.03l2.28-.55ZM951.67,70.61h15.33c2.31.24,3.47.82,3.47,1.73v7.94l-.55,1.19c-4.5-.42-7.75-.64-9.76-.64h-2.28l-6.84.64c-1.09-1.4-1.64-2.74-1.64-4.01v-2.83c0-2.07.76-3.41,2.28-4.01ZM970.46.55h58.66c4.44-.49,5.96,5.2,4.56,17.06-.97,2.43-1.92,3.77-2.83,4.01h-15.42c-2.92,0-4.62.76-5.11,2.28v82.01c0,2.68,1.34,4.01,4.01,4.01h15.69c2.68,0,4.01,1.7,4.01,5.11v10.86c0,2.92-.76,4.62-2.28,5.11h-63.04c-.61,0-1.37-.76-2.28-2.28v-16.51c0-.61.76-1.37,2.28-2.28h15.96c1.95,0,3.07-.58,3.38-1.73v-1.1c0-1.15-2.83-1.92-8.48-2.28-.79-.97-1.19-1.55-1.19-1.73v-4.56c0-2.68,1.7-4.01,5.11-4.01h4.01c1.15,0,1.73-2.07,1.73-6.2v-34.21c0-.55.58-1.12,1.73-1.73h5.11c1.95,0,3.07-.55,3.38-1.64v-7.48c0-1.28-3.41-2.4-10.22-3.38v-10.86c0-4.93-1.7-7.39-5.11-7.39h-15.42c-.61,0-1.37-.76-2.28-2.28V2.83c.61-1.52,1.95-2.28,4.01-2.28ZM983.51,39.87c3.47.3,5.2.88,5.2,1.73v8.48c-.67,1.52-2.01,2.28-4.01,2.28h-1.19c-3.41,0-5.11-1.31-5.11-3.92v-4.56c0-2.67,1.7-4.01,5.11-4.01Z"/><path class="e" d="M1026.57,96.61h17.42c1.52.61,2.28,1.92,2.28,3.92v2.28c0,2.01-.76,3.32-2.28,3.92h-15.24c-2.61,0-3.92-1.67-3.92-5.02v-3.38c0-.55.58-1.12,1.73-1.73ZM1027.66,63.4h3.92c2.01,0,3.31.73,3.92,2.19v4.56c0,2.62-2.07,3.92-6.2,3.92-2.61-.49-3.92-1.25-3.92-2.28v-6.2c0-.55.76-1.28,2.28-2.19ZM1041.16,31.84h5.66c.61,0,1.37.76,2.28,2.28v6.2c-.55,1.46-2.25,2.19-5.11,2.19s-4.56-.73-5.11-2.19v-6.2c0-.61.76-1.37,2.28-2.28ZM1075.55.27h56.93c2.61,0,3.92,2.43,3.92,7.3l.55,3.38h7.3c.61,0,1.37.76,2.28,2.28v3.92c0,3.77,1.31,5.66,3.92,5.66.73,0,2.07-.36,4.01-1.09,1.88.49,2.83,1.79,2.83,3.92v15.78c0,.61-.76,1.37-2.28,2.28h-16.33c-.61,0-1.37-.76-2.28-2.28v-14.14c0-2.98-1.13-4.47-3.38-4.47h-58.02c-2.25,0-3.38,1.13-3.38,3.38v60.3c0,.61-.76,1.37-2.28,2.28h-4.47c-2.68,0-4.01,1.67-4.01,5.02v.64c0,2.86.76,4.53,2.28,5.02h6.2c1.52,0,2.46,2.83,2.83,8.48l2.83.55h58.02c2.25,0,3.38-1.49,3.38-4.47v-14.14c0-.61.76-1.37,2.28-2.28h16.33c.55,0,1.31.76,2.28,2.28v14.69c0,2.62-1.34,3.92-4.01,3.92h-3.92c-1.89.85-2.83,2.74-2.83,5.66v3.92c0,.61-.76,1.37-2.28,2.28h-4.47c-2.25.24-3.38.79-3.38,1.64v4.56c0,2.01-.94,3.5-2.83,4.47h-58.02c-2.62,0-3.92-1.31-3.92-3.92v-5.11c0-1.1-3.41-1.86-10.22-2.28-.73-1.22-1.09-2.34-1.09-3.38,0-.37.18-.55.55-.55,0-4.87-1.31-7.3-3.92-7.3-5.23,0-7.85-1.12-7.85-3.38v-58.66c0-2.01.73-3.31,2.19-3.92h6.2c1.95,0,3.07-.55,3.38-1.64v-7.39c0-.49-.55-1.03-1.64-1.64h-6.2c-2.62,0-3.92-1.31-3.92-3.92v-1.19c0-2.98,3.19-4.47,9.58-4.47,1.46-2.07,2.19-4.13,2.19-6.2-.37-1.34-.55-2.1-.55-2.28,0-2.25,3.56-3.38,10.67-3.38,0-6.75,1.52-10.13,4.56-10.13ZM1076.65,88.76h1.19c2.98,0,4.47,1.49,4.47,4.47v1.19c0,3.35-1.31,5.02-3.92,5.02h-2.83c-2.62,0-3.92-1.31-3.92-3.92v-2.83c0-2.61,1.67-3.92,5.02-3.92Z"/><path class="e" d="M735.65,1.85c.47.54,1.25.58,1.74,1.11.14.15.99,1.64.99,1.74v12.02h7.44V4.7c0-.1.84-1.59.99-1.74.49-.53,1.28-.56,1.74-1.11h1.98c.47.54,1.25.58,1.74,1.11.14.15.99,1.64.99,1.74v12.02h7.44V4.7c0-.1.84-1.59.99-1.74.49-.53,1.28-.56,1.74-1.11h1.98c.47.54,1.25.58,1.74,1.11.14.15.99,1.64.99,1.74v12.02h7.44V4.7c0-.1.84-1.59.99-1.74.49-.53,1.28-.56,1.74-1.11h1.98c.47.54,1.25.58,1.74,1.11.14.15.99,1.64.99,1.74v12.02h7.44V4.7c0-.1.84-1.59.99-1.74.49-.53,1.28-.56,1.74-1.11h1.98c.47.54,1.25.58,1.74,1.11.14.15.99,1.64.99,1.74v12.02h7.81c2.84,0,7.31,4.48,7.31,7.31v7.81h12.02c.1,0,1.59.84,1.74.99.53.49.56,1.28,1.11,1.74v1.98c-.54.47-.58,1.25-1.11,1.74-.15.14-1.64.99-1.74.99h-12.02v7.44h12.02c.1,0,1.59.84,1.74.99.53.49.56,1.28,1.11,1.74v1.98c-.54.47-.58,1.25-1.11,1.74-.15.14-1.64.99-1.74.99h-12.02v7.44h12.02c.1,0,1.59.84,1.74.99.53.49.56,1.28,1.11,1.74v1.98c-.54.47-.58,1.25-1.11,1.74-.15.14-1.64.99-1.74.99h-12.02v7.44h12.02c.1,0,1.59.84,1.74.99.53.49.56,1.28,1.11,1.74v1.98c-.54.47-.58,1.25-1.11,1.74-.15.14-1.64.99-1.74.99h-12.02v7.44h12.02c.1,0,1.59.84,1.74.99.53.49.56,1.28,1.11,1.74v1.98c-.54.47-.58,1.25-1.11,1.74-.15.14-1.64.99-1.74.99h-12.02v7.81c0,2.84-4.48,7.31-7.31,7.31h-7.81v12.02c0,.17-.98,1.75-1.25,1.97-1.43,1.19-3.71,1.17-5.08-.11-.19-.18-1.11-1.76-1.11-1.87v-12.02h-7.44v12.02c0,.17-.98,1.75-1.25,1.97-1.43,1.19-3.71,1.17-5.08-.11-.19-.18-1.11-1.76-1.11-1.87v-12.02h-7.44v12.02c0,.17-.98,1.75-1.25,1.97-1.43,1.19-3.71,1.17-5.08-.11-.19-.18-1.11-1.76-1.11-1.87v-12.02h-7.44v12.02c0,.17-.98,1.75-1.25,1.97-1.43,1.19-3.71,1.17-5.08-.11-.19-.18-1.11-1.76-1.11-1.87v-12.02h-7.44v12.02c0,.17-.98,1.75-1.25,1.97-1.43,1.19-3.71,1.17-5.08-.11-.19-.18-1.11-1.76-1.11-1.87v-12.02h-7.81c-2.84,0-7.31-4.48-7.31-7.31v-7.81h-12.02c-.17,0-1.75-.98-1.97-1.25-1.19-1.43-1.17-3.71.11-5.08.18-.19,1.76-1.11,1.87-1.11h12.02v-7.44h-12.02c-.17,0-1.75-.98-1.97-1.25-1.19-1.43-1.17-3.71.11-5.08.18-.19,1.76-1.11,1.87-1.11h12.02v-7.44h-12.02c-.17,0-1.75-.98-1.97-1.25-1.19-1.43-1.17-3.71.11-5.08.18-.19,1.76-1.11,1.87-1.11h12.02v-7.44h-12.02c-.17,0-1.75-.98-1.97-1.25-1.19-1.43-1.17-3.71.11-5.08.18-.19,1.76-1.11,1.87-1.11h12.02v-7.44h-12.02c-.17,0-1.75-.98-1.97-1.25-1.19-1.43-1.17-3.71.11-5.08.18-.19,1.76-1.11,1.87-1.11h12.02v-7.81c0-2.84,4.47-7.31,7.31-7.31h7.81V4.7c0-.1.84-1.59.99-1.74.49-.53,1.28-.56,1.74-1.11h1.98ZM733.6,31.66c-1.65.51-2.61,1.56-2.91,3.28v60.51c.2,2.07,1.52,3.39,3.59,3.59h60.26c2.07-.2,3.39-1.52,3.59-3.59v-60.26c-.2-2.07-1.52-3.39-3.59-3.59l-60.94.07Z"/><rect class="e" x="738.13" y="39.04" width="52.55" height="52.55"/><path class="e" d="M735.65,1.85c.47.54,1.25.58,1.74,1.11.14.15.99,1.64.99,1.74v12.02h7.44V4.7c0-.1.84-1.59.99-1.74.49-.53,1.28-.56,1.74-1.11h1.98c.47.54,1.25.58,1.74,1.11.14.15.99,1.64.99,1.74v12.02h7.44V4.7c0-.1.84-1.59.99-1.74.49-.53,1.28-.56,1.74-1.11h1.98c.47.54,1.25.58,1.74,1.11.14.15.99,1.64.99,1.74v12.02h7.44V4.7c0-.1.84-1.59.99-1.74.49-.53,1.28-.56,1.74-1.11h1.98c.47.54,1.25.58,1.74,1.11.14.15.99,1.64.99,1.74v12.02h7.44V4.7c0-.1.84-1.59.99-1.74.49-.53,1.28-.56,1.74-1.11h1.98c.47.54,1.25.58,1.74,1.11.14.15.99,1.64.99,1.74v12.02h7.81c2.84,0,7.31,4.48,7.31,7.31v7.81h12.02c.1,0,1.59.84,1.74.99.53.49.56,1.28,1.11,1.74v1.98c-.54.47-.58,1.25-1.11,1.74-.15.14-1.64.99-1.74.99h-12.02v7.44h12.02c.1,0,1.59.84,1.74.99.53.49.56,1.28,1.11,1.74v1.98c-.54.47-.58,1.25-1.11,1.74-.15.14-1.64.99-1.74.99h-12.02v7.44h12.02c.1,0,1.59.84,1.74.99.53.49.56,1.28,1.11,1.74v1.98c-.54.47-.58,1.25-1.11,1.74-.15.14-1.64.99-1.74.99h-12.02v7.44h12.02c.1,0,1.59.84,1.74.99.53.49.56,1.28,1.11,1.74v1.98c-.54.47-.58,1.25-1.11,1.74-.15.14-1.64.99-1.74.99h-12.02v7.44h12.02c.1,0,1.59.84,1.74.99.53.49.56,1.28,1.11,1.74v1.98c-.54.47-.58,1.25-1.11,1.74-.15.14-1.64.99-1.74.99h-12.02v7.81c0,2.84-4.48,7.31-7.31,7.31h-7.81v12.02c0,.17-.98,1.75-1.25,1.97-1.43,1.19-3.71,1.17-5.08-.11-.19-.18-1.11-1.76-1.11-1.87v-12.02h-7.44v12.02c0,.17-.98,1.75-1.25,1.97-1.43,1.19-3.71,1.17-5.08-.11-.19-.18-1.11-1.76-1.11-1.87v-12.02h-7.44v12.02c0,.17-.98,1.75-1.25,1.97-1.43,1.19-3.71,1.17-5.08-.11-.19-.18-1.11-1.76-1.11-1.87v-12.02h-7.44v12.02c0,.17-.98,1.75-1.25,1.97-1.43,1.19-3.71,1.17-5.08-.11-.19-.18-1.11-1.76-1.11-1.87v-12.02h-7.44v12.02c0,.17-.98,1.75-1.25,1.97-1.43,1.19-3.71,1.17-5.08-.11-.19-.18-1.11-1.76-1.11-1.87v-12.02h-7.81c-2.84,0-7.31-4.48-7.31-7.31v-7.81h-12.02c-.17,0-1.75-.98-1.97-1.25-1.19-1.43-1.17-3.71.11-5.08.18-.19,1.76-1.11,1.87-1.11h12.02v-7.44h-12.02c-.17,0-1.75-.98-1.97-1.25-1.19-1.43-1.17-3.71.11-5.08.18-.19,1.76-1.11,1.87-1.11h12.02v-7.44h-12.02c-.17,0-1.75-.98-1.97-1.25-1.19-1.43-1.17-3.71.11-5.08.18-.19,1.76-1.11,1.87-1.11h12.02v-7.44h-12.02c-.17,0-1.75-.98-1.97-1.25-1.19-1.43-1.17-3.71.11-5.08.18-.19,1.76-1.11,1.87-1.11h12.02v-7.44h-12.02c-.17,0-1.75-.98-1.97-1.25-1.19-1.43-1.17-3.71.11-5.08.18-.19,1.76-1.11,1.87-1.11h12.02v-7.81c0-2.84,4.47-7.31,7.31-7.31h7.81V4.7c0-.1.84-1.59.99-1.74.49-.53,1.28-.56,1.74-1.11h1.98ZM733.6,31.66c-1.65.51-2.61,1.56-2.91,3.28v60.51c.2,2.07,1.52,3.39,3.59,3.59h60.26c2.07-.2,3.39-1.52,3.59-3.59v-60.26c-.2-2.07-1.52-3.39-3.59-3.59l-60.94.07Z"/><rect class="e" x="738.13" y="39.04" width="52.55" height="52.55"/><path class="e" d="M735.65,1.85c.47.54,1.25.58,1.74,1.11.14.15.99,1.64.99,1.74v12.02h7.44V4.7c0-.1.84-1.59.99-1.74.49-.53,1.28-.56,1.74-1.11h1.98c.47.54,1.25.58,1.74,1.11.14.15.99,1.64.99,1.74v12.02h7.44V4.7c0-.1.84-1.59.99-1.74.49-.53,1.28-.56,1.74-1.11h1.98c.47.54,1.25.58,1.74,1.11.14.15.99,1.64.99,1.74v12.02h7.44V4.7c0-.1.84-1.59.99-1.74.49-.53,1.28-.56,1.74-1.11h1.98c.47.54,1.25.58,1.74,1.11.14.15.99,1.64.99,1.74v12.02h7.44V4.7c0-.1.84-1.59.99-1.74.49-.53,1.28-.56,1.74-1.11h1.98c.47.54,1.25.58,1.74,1.11.14.15.99,1.64.99,1.74v12.02h7.81c2.84,0,7.31,4.48,7.31,7.31v7.81h12.02c.1,0,1.59.84,1.74.99.53.49.56,1.28,1.11,1.74v1.98c-.54.47-.58,1.25-1.11,1.74-.15.14-1.64.99-1.74.99h-12.02v7.44h12.02c.1,0,1.59.84,1.74.99.53.49.56,1.28,1.11,1.74v1.98c-.54.47-.58,1.25-1.11,1.74-.15.14-1.64.99-1.74.99h-12.02v7.44h12.02c.1,0,1.59.84,1.74.99.53.49.56,1.28,1.11,1.74v1.98c-.54.47-.58,1.25-1.11,1.74-.15.14-1.64.99-1.74.99h-12.02v7.44h12.02c.1,0,1.59.84,1.74.99.53.49.56,1.28,1.11,1.74v1.98c-.54.47-.58,1.25-1.11,1.74-.15.14-1.64.99-1.74.99h-12.02v7.44h12.02c.1,0,1.59.84,1.74.99.53.49.56,1.28,1.11,1.74v1.98c-.54.47-.58,1.25-1.11,1.74-.15.14-1.64.99-1.74.99h-12.02v7.81c0,2.84-4.48,7.31-7.31,7.31h-7.81v12.02c0,.17-.98,1.75-1.25,1.97-1.43,1.19-3.71,1.17-5.08-.11-.19-.18-1.11-1.76-1.11-1.87v-12.02h-7.44v12.02c0,.17-.98,1.75-1.25,1.97-1.43,1.19-3.71,1.17-5.08-.11-.19-.18-1.11-1.76-1.11-1.87v-12.02h-7.44v12.02c0,.17-.98,1.75-1.25,1.97-1.43,1.19-3.71,1.17-5.08-.11-.19-.18-1.11-1.76-1.11-1.87v-12.02h-7.44v12.02c0,.17-.98,1.75-1.25,1.97-1.43,1.19-3.71,1.17-5.08-.11-.19-.18-1.11-1.76-1.11-1.87v-12.02h-7.44v12.02c0,.17-.98,1.75-1.25,1.97-1.43,1.19-3.71,1.17-5.08-.11-.19-.18-1.11-1.76-1.11-1.87v-12.02h-7.81c-2.84,0-7.31-4.48-7.31-7.31v-7.81h-12.02c-.17,0-1.75-.98-1.97-1.25-1.19-1.43-1.17-3.71.11-5.08.18-.19,1.76-1.11,1.87-1.11h12.02v-7.44h-12.02c-.17,0-1.75-.98-1.97-1.25-1.19-1.43-1.17-3.71.11-5.08.18-.19,1.76-1.11,1.87-1.11h12.02v-7.44h-12.02c-.17,0-1.75-.98-1.97-1.25-1.19-1.43-1.17-3.71.11-5.08.18-.19,1.76-1.11,1.87-1.11h12.02v-7.44h-12.02c-.17,0-1.75-.98-1.97-1.25-1.19-1.43-1.17-3.71.11-5.08.18-.19,1.76-1.11,1.87-1.11h12.02v-7.44h-12.02c-.17,0-1.75-.98-1.97-1.25-1.19-1.43-1.17-3.71.11-5.08.18-.19,1.76-1.11,1.87-1.11h12.02v-7.81c0-2.84,4.47-7.31,7.31-7.31h7.81V4.7c0-.1.84-1.59.99-1.74.49-.53,1.28-.56,1.74-1.11h1.98ZM733.6,31.66c-1.65.51-2.61,1.56-2.91,3.28v60.51c.2,2.07,1.52,3.39,3.59,3.59h60.26c2.07-.2,3.39-1.52,3.59-3.59v-60.26c-.2-2.07-1.52-3.39-3.59-3.59l-60.94.07Z"/><rect class="e" x="738.13" y="39.04" width="52.55" height="52.55"/><path class="d" d="M6.84,86.48h9.12c3.47,0,5.2,1.34,5.2,4.01v4.56c0,.61-.76,1.37-2.28,2.28H4.01c-2.68,0-4.01-1.34-4.01-4.01v-2.83c0-2.68,2.28-4.01,6.84-4.01ZM15.96,68.24c3.47,0,5.2,1.31,5.2,3.92v4.65c0,.55-.76,1.31-2.28,2.28h-5.75c-2.68,0-4.01-1.34-4.01-4.01v-4.01c0-1.64,2.28-2.58,6.84-2.83ZM19.43,6.02h13.14c2.61,0,3.92,1.31,3.92,3.92v2.92c0,2.62-1.31,3.92-3.92,3.92h-13.14c-2.07,0-3.41-.76-4.01-2.28v-6.2c.61-1.52,1.95-2.28,4.01-2.28ZM38.86.27h83.29l1.73,1.19-.55,3.92v1.19c0,3.04,3.41,4.56,10.22,4.56,1.15,0,1.92,3.22,2.28,9.67l2.92.64h5.11c1.52.61,2.28,1.92,2.28,3.92v14.32c0,3.04-1.52,4.56-4.56,4.56h-4.56c-1.16.37-1.73,1.49-1.73,3.38v4.56c0,.61-.76,1.37-2.28,2.28h-4.01c-2.92,0-4.81.97-5.66,2.92v4.01c0,3.04-3.04,4.56-9.12,4.56-.91,1.88-1.49,2.83-1.73,2.83.36.73.55,1.31.55,1.73,0,3.35-.94,5.44-2.83,6.29h-4.56c-2.68,0-4.01,1.7-4.01,5.11,0,3.04,1.12,4.56,3.38,4.56l4.01.55c4.01-.37,7.27-.55,9.76-.55,3.04,0,4.56,2.68,4.56,8.03,0,3.04,1.88,4.56,5.66,4.56h4.01c.61,0,1.37.76,2.28,2.28v4.56c.24,2.25.82,3.38,1.73,3.38h3.38c3.83,0,5.75,1.52,5.75,4.56v12.59c0,3.04-1.92,4.56-5.75,4.56h-10.22c-4.56,0-6.84-1.34-6.84-4.01,0-1.64-2.68-2.58-8.03-2.83-.73-.79-1.49-3.65-2.28-8.58,1.46-1.15,3.16-1.73,5.11-1.73h3.47c.3,0,.88-.58,1.73-1.73-.55-1.88-1.89-2.83-4.01-2.83h-13.68c-2.01,0-3.16-.58-3.47-1.73v-2.28c0-4.13-.58-6.2-1.73-6.2h-2.28c-4.56,0-6.84-1.34-6.84-4.01,0-4.99-.94-7.48-2.83-7.48-3.04,0-7.02-.18-11.95-.55-12.59.43-18.88,1.58-18.88,3.47v36.49c0,2.68-1.7,4.01-5.11,4.01h-9.12c-4.62,0-6.93-1.34-6.93-4.01v-11.95c0-.61.79-1.37,2.37-2.28h4.56c2.61,0,3.92-1.73,3.92-5.2v-1.64c0-2.07-.76-3.41-2.28-4.01h-6.2c-.61,0-1.4-.76-2.37-2.28v-42.24c0-2.13-.94-3.47-2.83-4.01-2.62.37-4.71.55-6.29.55-1.52-.49-2.28-2.01-2.28-4.56,0-4.56,1.52-6.84,4.56-6.84h5.2c1.09-.37,1.64-1.49,1.64-3.38v-19.98c0-.61.79-1.4,2.37-2.37h15.33c2.01,0,3.16-.55,3.47-1.64v-7.48c-.36-1.09-1.52-1.64-3.47-1.64h-15.33c-.61,0-1.4-.76-2.37-2.28v-1.19c0-.61.79-1.37,2.37-2.28ZM29.65,101.9h2.92c2.61,0,3.92,1.34,3.92,4.01v2.83c0,2.68-1.7,4.01-5.11,4.01-3.77,0-5.66-1.52-5.66-4.56v-1.19c0-3.41,1.31-5.11,3.92-5.11ZM57.66,26.55v35.4c0,2.25,1.15,3.38,3.47,3.38h27.92c1.52,0,2.46-3.22,2.83-9.67,6.51-.91,9.76-2.07,9.76-3.47,0-5.29,1.52-7.94,4.56-7.94,4.2,0,6.29-1.52,6.29-4.56,0-4.99,1.34-7.48,4.01-7.48,4.56,0,6.84-1.31,6.84-3.92v-3.47c0-1.95-.58-3.07-1.73-3.38h-59.94c-2.68,0-4.01,1.7-4.01,5.11Z"/><path class="d" d="M142.5,115.77h10.67c3.41,0,5.11,1.31,5.11,3.92v.55c0,3.43-2.78,6.2-6.2,6.2h-10.77c-1.64,0-2.82-.49-3.52-1.47-.27-.38-.4-.84-.4-1.3v-3.98c0-2.61,1.7-3.92,5.11-3.92ZM150.34,63.22h14.69c2.68,0,4.01,1.7,4.01,5.11v.55c0,3.41-1.89,5.11-5.66,5.11h-9.58c-4.07,0-6.48-.81-7.24-2.44-.12-.25-.15-.53-.15-.8v-4.72c0-.34.06-.69.22-.98.68-1.21,1.91-1.81,3.7-1.81ZM154.35,90.77h1.09c3.41,0,5.11,1.31,5.11,3.92v4.47c0,.51-.55,1.14-1.64,1.87-.39.26-.84.41-1.31.41h-2.71c-3.43,0-6.2-2.78-6.2-6.2v-1.12c0-.47.13-.93.4-1.31.98-1.36,2.73-2.05,5.25-2.05ZM160.28,10.4h1.09c3.41,0,5.11,1.31,5.11,3.92v4.47c0,.52-.55,1.14-1.64,1.87-.39.26-.84.41-1.3.41h-2.71c-3.43,0-6.2-2.78-6.2-6.2v-1.12c0-.47.13-.93.4-1.31.98-1.36,2.73-2.05,5.25-2.05ZM172.97,0h101.03c.45,0,.9.13,1.28.38,1.43.98,2.14,2.73,2.14,5.27v11.31c0,3.77-2.25,5.66-6.75,5.66h-75.08c-3.12,0-5.66,2.53-5.66,5.66v24.27c0,2.25,1.49,3.38,4.47,3.38h57.62c.46,0,.93.13,1.3.4.98.71,1.47,1.88,1.47,3.52v12.96c0,3.77-1.86,5.66-5.56,5.66h-57.66c-.44,0-.88.37-1.31,1.11-.21.36-.33.77-.33,1.19v21.97c0,3.12,2.53,5.66,5.66,5.66h77.91c2.61,0,3.92,2.28,3.92,6.84v10.13c0,2.54-.71,4.3-2.14,5.27-.37.26-.82.38-1.28.38h-101.04c-1.79,0-3.02-.6-3.7-1.81-.17-.3-.22-.64-.22-.98v-50.73c0-.08,0-.16.01-.24.19-2.17.74-3.25,1.63-3.25h14.69c3.04,0,4.56-1.12,4.56-3.38v-5.66c0-.43-.36-.89-1.09-1.36-.37-.24-.82-.37-1.26-.37h-16.35c-.47,0-1.06-.55-1.79-1.65-.25-.38-.4-.83-.4-1.29V23.17c0-1.52,2.25-2.28,6.75-2.28h0c1.86,0,3.38-1.51,3.38-3.38v-5.11c0-.44-.37-.88-1.11-1.32-.36-.21-.77-.33-1.19-.33h-2.81c-2.42,0-3.98-.54-4.71-1.63-.22-.34-.31-.75-.31-1.16V2.8c0-.34.06-.69.22-.98.68-1.21,1.91-1.81,3.7-1.81ZM222.68,25.45h1.09c3.41,0,5.11,1.31,5.11,3.92v4.47c0,.52-.55,1.14-1.64,1.87-.39.26-.84.41-1.3.41h-2.71c-3.43,0-6.2-2.78-6.2-6.2v-1.12c0-.47.13-.93.4-1.31.98-1.36,2.73-2.05,5.25-2.05Z"/><path class="d" d="M269.21,96.61h17.42c1.52.61,2.28,1.92,2.28,3.92v2.28c0,2.01-.76,3.32-2.28,3.92h-15.24c-2.61,0-3.92-1.67-3.92-5.02v-3.38c0-.55.58-1.12,1.73-1.73ZM270.31,63.4h3.92c2.01,0,3.31.73,3.92,2.19v4.56c0,2.62-2.07,3.92-6.2,3.92-2.61-.49-3.92-1.25-3.92-2.28v-6.2c0-.55.76-1.28,2.28-2.19ZM283.81,31.84h5.66c.61,0,1.37.76,2.28,2.28v6.2c-.55,1.46-2.25,2.19-5.11,2.19s-4.56-.73-5.11-2.19v-6.2c0-.61.76-1.37,2.28-2.28ZM318.2.27h56.93c2.61,0,3.92,2.43,3.92,7.3l.55,3.38h7.3c.61,0,1.37.76,2.28,2.28v3.92c0,3.77,1.31,5.66,3.92,5.66.73,0,2.07-.36,4.01-1.09,1.88.49,2.83,1.79,2.83,3.92v15.78c0,.61-.76,1.37-2.28,2.28h-16.33c-.61,0-1.37-.76-2.28-2.28v-14.14c0-2.98-1.13-4.47-3.38-4.47h-58.02c-2.25,0-3.38,1.13-3.38,3.38v60.3c0,.61-.76,1.37-2.28,2.28h-4.47c-2.68,0-4.01,1.67-4.01,5.02v.64c0,2.86.76,4.53,2.28,5.02h6.2c1.52,0,2.46,2.83,2.83,8.48l2.83.55h58.02c2.25,0,3.38-1.49,3.38-4.47v-14.14c0-.61.76-1.37,2.28-2.28h16.33c.55,0,1.31.76,2.28,2.28v14.69c0,2.62-1.34,3.92-4.01,3.92h-3.92c-1.89.85-2.83,2.74-2.83,5.66v3.92c0,.61-.76,1.37-2.28,2.28h-4.47c-2.25.24-3.38.79-3.38,1.64v4.56c0,2.01-.94,3.5-2.83,4.47h-58.02c-2.62,0-3.92-1.31-3.92-3.92v-5.11c0-1.1-3.41-1.86-10.22-2.28-.73-1.22-1.09-2.34-1.09-3.38,0-.37.18-.55.55-.55,0-4.87-1.31-7.3-3.92-7.3-5.23,0-7.85-1.12-7.85-3.38v-58.66c0-2.01.73-3.31,2.19-3.92h6.2c1.95,0,3.07-.55,3.38-1.64v-7.39c0-.49-.55-1.03-1.64-1.64h-6.2c-2.62,0-3.92-1.31-3.92-3.92v-1.19c0-2.98,3.19-4.47,9.58-4.47,1.46-2.07,2.19-4.13,2.19-6.2-.36-1.34-.55-2.1-.55-2.28,0-2.25,3.56-3.38,10.67-3.38,0-6.75,1.52-10.13,4.56-10.13ZM319.3,88.76h1.19c2.47,0,4.47,2,4.47,4.47v1.19c0,3.35-1.31,5.02-3.92,5.02h0c-3.73,0-6.75-3.02-6.75-6.75h0c0-2.61,1.67-3.92,5.02-3.92Z"/><path class="d" d="M398.21,12.5c3.47,0,5.2,1.34,5.2,4.01v3.38c0,2.68-1.16,4.01-3.47,4.01-4.93-.37-7.39-1.12-7.39-2.28v-.55c0-5.35,1.13-8.03,3.38-8.03l2.28-.55ZM396.57,70.61h15.33c2.31.24,3.47.82,3.47,1.73v7.94l-.55,1.19c-4.5-.42-7.75-.64-9.76-.64h-2.28l-6.84.64c-1.09-1.4-1.64-2.74-1.64-4.01v-2.83c0-2.07.76-3.41,2.28-4.01ZM415.36.55h58.66c4.44-.49,5.96,5.2,4.56,17.06-.97,2.43-1.92,3.77-2.83,4.01h-15.42c-2.92,0-4.62.76-5.11,2.28v82.01c0,2.68,1.34,4.01,4.01,4.01h15.69c2.68,0,4.01,1.7,4.01,5.11v10.86c0,2.92-.76,4.62-2.28,5.11h-63.04c-.61,0-1.37-.76-2.28-2.28v-16.51c0-.61.76-1.37,2.28-2.28h15.96c1.95,0,3.07-.58,3.38-1.73v-1.1c0-1.15-2.83-1.92-8.48-2.28-.79-.97-1.19-1.55-1.19-1.73v-4.56c0-2.68,1.7-4.01,5.11-4.01h4.01c1.15,0,1.73-2.07,1.73-6.2v-34.21c0-.55.58-1.12,1.73-1.73h5.11c1.95,0,3.07-.55,3.38-1.64v-7.48c0-1.28-3.41-2.4-10.22-3.38v-10.86c0-4.93-1.7-7.39-5.11-7.39h-15.42c-.61,0-1.37-.76-2.28-2.28V2.83c.61-1.52,1.95-2.28,4.01-2.28ZM428.41,39.87c3.47.3,5.2.88,5.2,1.73v8.48c-.67,1.52-2.01,2.28-4.01,2.28h-1.19c-3.41,0-5.11-1.31-5.11-3.92v-4.56c0-2.67,1.7-4.01,5.11-4.01Z"/><path class="d" d="M466.17,5.38h6.84c1.16.37,1.73,1.49,1.73,3.38v4.56c0,2.68-1.34,4.01-4.01,4.01h-2.28c-3.41,0-5.11-2.86-5.11-8.58.55-1.52,1.49-2.65,2.83-3.38ZM500.29.27h77.91c3.77,0,5.66,1.52,5.66,4.56v8.48c0,5.72-1.52,8.58-4.56,8.58h-38.04c-1.16,0-1.73,2.07-1.73,6.2v100.62c-.49,1.52-2.19,2.28-5.11,2.28h-11.95c-2.92,0-4.62-.76-5.11-2.28v-27.82c0-.55.58-1.12,1.73-1.73h6.2c2.07,0,3.41-.76,4.01-2.28v-5.11c0-2.25-1.16-3.38-3.47-3.38h-7.39c-.73,0-1.09-.39-1.09-1.19v-39.23c0-4.5-1.34-6.75-4.01-6.75h-4.56c-.55,0-1.28-.76-2.19-2.28v-5.75c0-.55.73-1.31,2.19-2.28h4.56c2.68,0,4.01-1.49,4.01-4.47-.24-3.04-.82-4.56-1.73-4.56h-35.76c-2.8,0-4.32-.58-4.56-1.73v-1.09c0-.55.58-1.12,1.73-1.73h3.92c3.04,0,4.56-2.1,4.56-6.29s-3.22-6.2-9.67-6.2l-.55-1.19v-1.1l1.09-1.73c10.1-.37,18.06-.55,23.9-.55ZM494,59.39h6.84c4.56,0,6.84,1.34,6.84,4.01,0,.37.18.91.55,1.64,0,2.37-.94,4.07-2.83,5.11h-14.78c-2.68,0-4.01-1.7-4.01-5.11v-1.1c0-3.04,2.46-4.56,7.39-4.56ZM501.39,108.29h5.75c.55,0,1.31.76,2.28,2.28v6.2c-.79,1.52-1.73,2.28-2.83,2.28-4.93-.18-7.39-.94-7.39-2.28v-6.2c0-.61.73-1.37,2.19-2.28ZM510.51,88.4h5.66c.24,0,.82.37,1.73,1.09l-.55,2.83v4.56c-.49,1.52-2.19,2.28-5.11,2.28s-4.56-.76-4.56-2.28c0-5.66.94-8.48,2.83-8.48Z"/><path class="d" d="M563.15,86.48h9.12c3.47,0,5.2,1.34,5.2,4.01v4.56c0,.61-.76,1.37-2.28,2.28h-14.87c-2.68,0-4.01-1.34-4.01-4.01v-2.83c0-2.68,2.28-4.01,6.84-4.01ZM572.27,68.24c3.47,0,5.2,1.31,5.2,3.92v4.65c0,.55-.76,1.31-2.28,2.28h-5.75c-2.68,0-4.01-1.34-4.01-4.01v-4.01c0-1.64,2.28-2.58,6.84-2.83ZM575.74,6.02h13.14c2.61,0,3.92,1.31,3.92,3.92v2.92c0,2.62-1.31,3.92-3.92,3.92h-13.14c-2.07,0-3.41-.76-4.01-2.28v-6.2c.61-1.52,1.95-2.28,4.01-2.28ZM595.17.27h83.29l1.73,1.19-.55,3.92v1.19c0,3.04,3.41,4.56,10.22,4.56,1.15,0,1.92,3.22,2.28,9.67l2.92.64h5.11c1.52.61,2.28,1.92,2.28,3.92v14.32c0,3.04-1.52,4.56-4.56,4.56h-4.56c-1.16.37-1.73,1.49-1.73,3.38v4.56c0,.61-.76,1.37-2.28,2.28h-4.01c-2.92,0-4.81.97-5.66,2.92v4.01c0,3.04-3.04,4.56-9.12,4.56-.91,1.88-1.49,2.83-1.73,2.83.37.73.55,1.31.55,1.73,0,3.35-.94,5.44-2.83,6.29h-4.56c-2.68,0-4.01,1.7-4.01,5.11,0,3.04,1.12,4.56,3.38,4.56l4.01.55c4.01-.37,7.27-.55,9.76-.55,3.04,0,4.56,2.68,4.56,8.03,0,3.04,1.88,4.56,5.66,4.56h4.01c.61,0,1.37.76,2.28,2.28v4.56c.24,2.25.82,3.38,1.73,3.38h3.38c3.83,0,5.75,1.52,5.75,4.56v12.59c0,3.04-1.92,4.56-5.75,4.56h-10.22c-4.56,0-6.84-1.34-6.84-4.01,0-1.64-2.68-2.58-8.03-2.83-.73-.79-1.49-3.65-2.28-8.58,1.46-1.15,3.16-1.73,5.11-1.73h3.47c.3,0,.88-.58,1.73-1.73-.55-1.88-1.89-2.83-4.01-2.83h-13.68c-2.01,0-3.16-.58-3.47-1.73v-2.28c0-4.13-.58-6.2-1.73-6.2h-2.28c-4.56,0-6.84-1.34-6.84-4.01,0-4.99-.94-7.48-2.83-7.48-3.04,0-7.03-.18-11.95-.55-12.59.43-18.88,1.58-18.88,3.47v36.49c0,2.68-1.7,4.01-5.11,4.01h-9.12c-4.62,0-6.93-1.34-6.93-4.01v-11.95c0-.61.79-1.37,2.37-2.28h4.56c2.61,0,3.92-1.73,3.92-5.2v-1.64c0-2.07-.76-3.41-2.28-4.01h-6.2c-.61,0-1.4-.76-2.37-2.28v-42.24c0-2.13-.94-3.47-2.83-4.01-2.62.37-4.71.55-6.29.55-1.52-.49-2.28-2.01-2.28-4.56,0-4.56,1.52-6.84,4.56-6.84h5.2c1.09-.37,1.64-1.49,1.64-3.38v-19.98c0-.61.79-1.4,2.37-2.37h15.33c2.01,0,3.16-.55,3.47-1.64v-7.48c-.37-1.09-1.52-1.64-3.47-1.64h-15.33c-.61,0-1.4-.76-2.37-2.28v-1.19c0-.61.79-1.37,2.37-2.28ZM585.96,101.9h2.92c2.61,0,3.92,1.34,3.92,4.01v2.83c0,2.68-1.7,4.01-5.11,4.01-3.77,0-5.66-1.52-5.66-4.56v-1.19c0-3.41,1.31-5.11,3.92-5.11ZM613.96,26.55v35.4c0,2.25,1.15,3.38,3.47,3.38h27.92c1.52,0,2.46-3.22,2.83-9.67,6.51-.91,9.76-2.07,9.76-3.47,0-5.29,1.52-7.94,4.56-7.94,4.2,0,6.29-1.52,6.29-4.56,0-4.99,1.34-7.48,4.01-7.48,4.56,0,6.84-1.31,6.84-3.92v-3.47c0-1.95-.58-3.07-1.73-3.38h-59.94c-2.68,0-4.01,1.7-4.01,5.11Z"/><path class="d" d="M823.4,103.54h15.14c2.98,0,4.47,1.49,4.47,4.47v5.02c0,.61-.76,1.37-2.28,2.28h-16.24c-2.61,0-3.92-2.07-3.92-6.2.55-3.71,1.49-5.56,2.83-5.56ZM830.7,47.99h8.94c4.5,0,6.75,1.31,6.75,3.92v1.64c0,3.41-1.31,5.11-3.92,5.11h-14.6c-1.88-1.03-2.83-2.74-2.83-5.11,0-3.71,1.89-5.57,5.66-5.57ZM832.89,12.04c3.77,0,5.47,1.31,5.11,3.92l.55,2.83c0,2.62-1.31,3.92-3.92,3.92h-3.92c-2.62,0-3.92-1.31-3.92-3.92v-2.28c0-2.98,2.04-4.47,6.11-4.47ZM935.61.27h15.69c2.01,0,3.31.76,3.92,2.28v125.62c0,.37-.94,1.31-2.83,2.83-3.71-.37-6.51-.55-8.39-.55h-8.94c-.55,0-1.13-.58-1.73-1.73v-2.74c3.41-1.82,5.11-2.95,5.11-3.38v-.55c0-5.35-1.7-8.54-5.11-9.58-.43-2.98-1.16-4.47-2.19-4.47h-15.14c-3.04,0-4.56-3.38-4.56-10.13l-3.92-.55h-5.02c-.55,0-1.13-.55-1.73-1.64v-1.73c0-.36.21-.55.64-.55-.85-4.13-1.61-6.2-2.28-6.2h-4.47c-3.41,0-5.11-1.12-5.11-3.38l.64-2.74c0-4.14-1.52-6.2-4.56-6.2h-4.47c-1.46,0-2.19-2.25-2.19-6.75v-2.19c0-.79-.4-1.19-1.19-1.19h-7.3c-.49,0-1.04.58-1.64,1.73v58.84c0,3.41-1.31,5.11-3.92,5.11h-14.6c-2.01,0-3.32-.76-3.92-2.28V60.85c0-.55.76-1.28,2.28-2.19h17.33c1.88-.97,2.83-2.49,2.83-4.56v-2.19c0-2.62-1.31-3.92-3.92-3.92h-16.88c-1.09-.37-1.64-1.49-1.64-3.38V4.2c0-.61.76-1.37,2.28-2.28h17.88c1.52.55,2.28,2.25,2.28,5.11v33.66c0,.55.55,1.09,1.64,1.64h1.19c2.55,0,4.77.18,6.66.55,1.95-.36,4.2-.55,6.75-.55,2.98,0,4.47,2.07,4.47,6.2,0,3.71,1.12,5.57,3.38,5.57h6.2c.61,0,1.37.76,2.28,2.28v4.47c0,2.62,1.31,3.92,3.92,3.92h4.47c.55,0,1.28.76,2.19,2.28v6.2c0,.49.58,1.03,1.73,1.64h3.38c3.71,0,5.56,1.86,5.56,5.57v3.38c.37,1.16,1.49,1.73,3.38,1.73h5.11c.49,0,1.03-.58,1.64-1.73v-48.26c0-3.71,2.25-5.57,6.75-5.57,2.61,0,3.92-.55,3.92-1.64v-6.75c0-.55-.58-1.12-1.73-1.73h-3.92c-3.35,0-5.02-1.85-5.02-5.56V5.93c0-2.92.94-4.8,2.83-5.66ZM924.94,19.89h4.47c2.25.24,3.38.82,3.38,1.73v6.75c0,.49-.55,1.04-1.64,1.64h-6.2c-.61,0-1.37-.76-2.28-2.28v-5.56c0-.61.76-1.37,2.28-2.28ZM929.41,114.13h1.73c.49,0,1.03.58,1.64,1.73v6.75c-.37,1.09-1.49,1.64-3.38,1.64-.55,0-1.28-.73-2.19-2.19v-5.66c0-.61.73-1.37,2.19-2.28Z"/><path class="d" d="M953.31,12.5c3.47,0,5.2,1.34,5.2,4.01v3.38c0,2.68-1.16,4.01-3.47,4.01-4.93-.37-7.39-1.12-7.39-2.28v-.55c0-5.35,1.13-8.03,3.38-8.03l2.28-.55ZM951.67,70.61h15.33c2.31.24,3.47.82,3.47,1.73v7.94l-.55,1.19c-4.5-.42-7.75-.64-9.76-.64h-2.28l-6.84.64c-1.09-1.4-1.64-2.74-1.64-4.01v-2.83c0-2.07.76-3.41,2.28-4.01ZM970.46.55h58.66c4.44-.49,5.96,5.2,4.56,17.06-.97,2.43-1.92,3.77-2.83,4.01h-15.42c-2.92,0-4.62.76-5.11,2.28v82.01c0,2.68,1.34,4.01,4.01,4.01h15.69c2.68,0,4.01,1.7,4.01,5.11v10.86c0,2.92-.76,4.62-2.28,5.11h-63.04c-.61,0-1.37-.76-2.28-2.28v-16.51c0-.61.76-1.37,2.28-2.28h15.96c1.95,0,3.07-.58,3.38-1.73v-1.1c0-1.15-2.83-1.92-8.48-2.28-.79-.97-1.19-1.55-1.19-1.73v-4.56c0-2.68,1.7-4.01,5.11-4.01h4.01c1.15,0,1.73-2.07,1.73-6.2v-34.21c0-.55.58-1.12,1.73-1.73h5.11c1.95,0,3.07-.55,3.38-1.64v-7.48c0-1.28-3.41-2.4-10.22-3.38v-10.86c0-4.93-1.7-7.39-5.11-7.39h-15.42c-.61,0-1.37-.76-2.28-2.28V2.83c.61-1.52,1.95-2.28,4.01-2.28ZM983.51,39.87c3.47.3,5.2.88,5.2,1.73v8.48c-.67,1.52-2.01,2.28-4.01,2.28h-1.19c-3.41,0-5.11-1.31-5.11-3.92v-4.56c0-2.67,1.7-4.01,5.11-4.01Z"/><path class="d" d="M1026.57,96.61h17.42c1.52.61,2.28,1.92,2.28,3.92v2.28c0,2.01-.76,3.32-2.28,3.92h-15.24c-2.61,0-3.92-1.67-3.92-5.02v-3.38c0-.55.58-1.12,1.73-1.73ZM1027.66,63.4h3.92c2.01,0,3.31.73,3.92,2.19v4.56c0,2.62-2.07,3.92-6.2,3.92-2.61-.49-3.92-1.25-3.92-2.28v-6.2c0-.55.76-1.28,2.28-2.19ZM1041.16,31.84h5.66c.61,0,1.37.76,2.28,2.28v6.2c-.55,1.46-2.25,2.19-5.11,2.19s-4.56-.73-5.11-2.19v-6.2c0-.61.76-1.37,2.28-2.28ZM1075.55.27h56.93c2.61,0,3.92,2.43,3.92,7.3l.55,3.38h7.3c.61,0,1.37.76,2.28,2.28v3.92c0,3.77,1.31,5.66,3.92,5.66.73,0,2.07-.36,4.01-1.09,1.88.49,2.83,1.79,2.83,3.92v15.78c0,.61-.76,1.37-2.28,2.28h-16.33c-.61,0-1.37-.76-2.28-2.28v-14.14c0-2.98-1.13-4.47-3.38-4.47h-58.02c-2.25,0-3.38,1.13-3.38,3.38v60.3c0,.61-.76,1.37-2.28,2.28h-4.47c-2.68,0-4.01,1.67-4.01,5.02v.64c0,2.86.76,4.53,2.28,5.02h6.2c1.52,0,2.46,2.83,2.83,8.48l2.83.55h58.02c2.25,0,3.38-1.49,3.38-4.47v-14.14c0-.61.76-1.37,2.28-2.28h16.33c.55,0,1.31.76,2.28,2.28v14.69c0,2.62-1.34,3.92-4.01,3.92h-3.92c-1.89.85-2.83,2.74-2.83,5.66v3.92c0,.61-.76,1.37-2.28,2.28h-4.47c-2.25.24-3.38.79-3.38,1.64v4.56c0,2.01-.94,3.5-2.83,4.47h-58.02c-2.62,0-3.92-1.31-3.92-3.92v-5.11c0-1.1-3.41-1.86-10.22-2.28-.73-1.22-1.09-2.34-1.09-3.38,0-.37.18-.55.55-.55,0-4.87-1.31-7.3-3.92-7.3-5.23,0-7.85-1.12-7.85-3.38v-58.66c0-2.01.73-3.31,2.19-3.92h6.2c1.95,0,3.07-.55,3.38-1.64v-7.39c0-.49-.55-1.03-1.64-1.64h-6.2c-2.62,0-3.92-1.31-3.92-3.92v-1.19c0-2.98,3.19-4.47,9.58-4.47,1.46-2.07,2.19-4.13,2.19-6.2-.37-1.34-.55-2.1-.55-2.28,0-2.25,3.56-3.38,10.67-3.38,0-6.75,1.52-10.13,4.56-10.13ZM1076.65,88.76h1.19c2.98,0,4.47,1.49,4.47,4.47v1.19c0,3.35-1.31,5.02-3.92,5.02h-2.83c-2.62,0-3.92-1.31-3.92-3.92v-2.83c0-2.61,1.67-3.92,5.02-3.92Z"/><path class="d" d="M735.65,1.85c.47.54,1.25.58,1.74,1.11.14.15.99,1.64.99,1.74v12.02h7.44V4.7c0-.1.84-1.59.99-1.74.49-.53,1.28-.56,1.74-1.11h1.98c.47.54,1.25.58,1.74,1.11.14.15.99,1.64.99,1.74v12.02h7.44V4.7c0-.1.84-1.59.99-1.74.49-.53,1.28-.56,1.74-1.11h1.98c.47.54,1.25.58,1.74,1.11.14.15.99,1.64.99,1.74v12.02h7.44V4.7c0-.1.84-1.59.99-1.74.49-.53,1.28-.56,1.74-1.11h1.98c.47.54,1.25.58,1.74,1.11.14.15.99,1.64.99,1.74v12.02h7.44V4.7c0-.1.84-1.59.99-1.74.49-.53,1.28-.56,1.74-1.11h1.98c.47.54,1.25.58,1.74,1.11.14.15.99,1.64.99,1.74v12.02h7.81c2.84,0,7.31,4.48,7.31,7.31v7.81h12.02c.1,0,1.59.84,1.74.99.53.49.56,1.28,1.11,1.74v1.98c-.54.47-.58,1.25-1.11,1.74-.15.14-1.64.99-1.74.99h-12.02v7.44h12.02c.1,0,1.59.84,1.74.99.53.49.56,1.28,1.11,1.74v1.98c-.54.47-.58,1.25-1.11,1.74-.15.14-1.64.99-1.74.99h-12.02v7.44h12.02c.1,0,1.59.84,1.74.99.53.49.56,1.28,1.11,1.74v1.98c-.54.47-.58,1.25-1.11,1.74-.15.14-1.64.99-1.74.99h-12.02v7.44h12.02c.1,0,1.59.84,1.74.99.53.49.56,1.28,1.11,1.74v1.98c-.54.47-.58,1.25-1.11,1.74-.15.14-1.64.99-1.74.99h-12.02v7.44h12.02c.1,0,1.59.84,1.74.99.53.49.56,1.28,1.11,1.74v1.98c-.54.47-.58,1.25-1.11,1.74-.15.14-1.64.99-1.74.99h-12.02v7.81c0,2.84-4.48,7.31-7.31,7.31h-7.81v12.02c0,.17-.98,1.75-1.25,1.97-1.43,1.19-3.71,1.17-5.08-.11-.19-.18-1.11-1.76-1.11-1.87v-12.02h-7.44v12.02c0,.17-.98,1.75-1.25,1.97-1.43,1.19-3.71,1.17-5.08-.11-.19-.18-1.11-1.76-1.11-1.87v-12.02h-7.44v12.02c0,.17-.98,1.75-1.25,1.97-1.43,1.19-3.71,1.17-5.08-.11-.19-.18-1.11-1.76-1.11-1.87v-12.02h-7.44v12.02c0,.17-.98,1.75-1.25,1.97-1.43,1.19-3.71,1.17-5.08-.11-.19-.18-1.11-1.76-1.11-1.87v-12.02h-7.44v12.02c0,.17-.98,1.75-1.25,1.97-1.43,1.19-3.71,1.17-5.08-.11-.19-.18-1.11-1.76-1.11-1.87v-12.02h-7.81c-2.84,0-7.31-4.48-7.31-7.31v-7.81h-12.02c-.17,0-1.75-.98-1.97-1.25-1.19-1.43-1.17-3.71.11-5.08.18-.19,1.76-1.11,1.87-1.11h12.02v-7.44h-12.02c-.17,0-1.75-.98-1.97-1.25-1.19-1.43-1.17-3.71.11-5.08.18-.19,1.76-1.11,1.87-1.11h12.02v-7.44h-12.02c-.17,0-1.75-.98-1.97-1.25-1.19-1.43-1.17-3.71.11-5.08.18-.19,1.76-1.11,1.87-1.11h12.02v-7.44h-12.02c-.17,0-1.75-.98-1.97-1.25-1.19-1.43-1.17-3.71.11-5.08.18-.19,1.76-1.11,1.87-1.11h12.02v-7.44h-12.02c-.17,0-1.75-.98-1.97-1.25-1.19-1.43-1.17-3.71.11-5.08.18-.19,1.76-1.11,1.87-1.11h12.02v-7.81c0-2.84,4.47-7.31,7.31-7.31h7.81V4.7c0-.1.84-1.59.99-1.74.49-.53,1.28-.56,1.74-1.11h1.98ZM733.6,31.66c-1.65.51-2.61,1.56-2.91,3.28v60.51c.2,2.07,1.52,3.39,3.59,3.59h60.26c2.07-.2,3.39-1.52,3.59-3.59v-60.26c-.2-2.07-1.52-3.39-3.59-3.59l-60.94.07Z"/><rect class="d" x="738.13" y="39.04" width="52.55" height="52.55"/><path class="d" d="M735.65,1.85c.47.54,1.25.58,1.74,1.11.14.15.99,1.64.99,1.74v12.02h7.44V4.7c0-.1.84-1.59.99-1.74.49-.53,1.28-.56,1.74-1.11h1.98c.47.54,1.25.58,1.74,1.11.14.15.99,1.64.99,1.74v12.02h7.44V4.7c0-.1.84-1.59.99-1.74.49-.53,1.28-.56,1.74-1.11h1.98c.47.54,1.25.58,1.74,1.11.14.15.99,1.64.99,1.74v12.02h7.44V4.7c0-.1.84-1.59.99-1.74.49-.53,1.28-.56,1.74-1.11h1.98c.47.54,1.25.58,1.74,1.11.14.15.99,1.64.99,1.74v12.02h7.44V4.7c0-.1.84-1.59.99-1.74.49-.53,1.28-.56,1.74-1.11h1.98c.47.54,1.25.58,1.74,1.11.14.15.99,1.64.99,1.74v12.02h7.81c2.84,0,7.31,4.48,7.31,7.31v7.81h12.02c.1,0,1.59.84,1.74.99.53.49.56,1.28,1.11,1.74v1.98c-.54.47-.58,1.25-1.11,1.74-.15.14-1.64.99-1.74.99h-12.02v7.44h12.02c.1,0,1.59.84,1.74.99.53.49.56,1.28,1.11,1.74v1.98c-.54.47-.58,1.25-1.11,1.74-.15.14-1.64.99-1.74.99h-12.02v7.44h12.02c.1,0,1.59.84,1.74.99.53.49.56,1.28,1.11,1.74v1.98c-.54.47-.58,1.25-1.11,1.74-.15.14-1.64.99-1.74.99h-12.02v7.44h12.02c.1,0,1.59.84,1.74.99.53.49.56,1.28,1.11,1.74v1.98c-.54.47-.58,1.25-1.11,1.74-.15.14-1.64.99-1.74.99h-12.02v7.44h12.02c.1,0,1.59.84,1.74.99.53.49.56,1.28,1.11,1.74v1.98c-.54.47-.58,1.25-1.11,1.74-.15.14-1.64.99-1.74.99h-12.02v7.81c0,2.84-4.48,7.31-7.31,7.31h-7.81v12.02c0,.17-.98,1.75-1.25,1.97-1.43,1.19-3.71,1.17-5.08-.11-.19-.18-1.11-1.76-1.11-1.87v-12.02h-7.44v12.02c0,.17-.98,1.75-1.25,1.97-1.43,1.19-3.71,1.17-5.08-.11-.19-.18-1.11-1.76-1.11-1.87v-12.02h-7.44v12.02c0,.17-.98,1.75-1.25,1.97-1.43,1.19-3.71,1.17-5.08-.11-.19-.18-1.11-1.76-1.11-1.87v-12.02h-7.44v12.02c0,.17-.98,1.75-1.25,1.97-1.43,1.19-3.71,1.17-5.08-.11-.19-.18-1.11-1.76-1.11-1.87v-12.02h-7.44v12.02c0,.17-.98,1.75-1.25,1.97-1.43,1.19-3.71,1.17-5.08-.11-.19-.18-1.11-1.76-1.11-1.87v-12.02h-7.81c-2.84,0-7.31-4.48-7.31-7.31v-7.81h-12.02c-.17,0-1.75-.98-1.97-1.25-1.19-1.43-1.17-3.71.11-5.08.18-.19,1.76-1.11,1.87-1.11h12.02v-7.44h-12.02c-.17,0-1.75-.98-1.97-1.25-1.19-1.43-1.17-3.71.11-5.08.18-.19,1.76-1.11,1.87-1.11h12.02v-7.44h-12.02c-.17,0-1.75-.98-1.97-1.25-1.19-1.43-1.17-3.71.11-5.08.18-.19,1.76-1.11,1.87-1.11h12.02v-7.44h-12.02c-.17,0-1.75-.98-1.97-1.25-1.19-1.43-1.17-3.71.11-5.08.18-.19,1.76-1.11,1.87-1.11h12.02v-7.44h-12.02c-.17,0-1.75-.98-1.97-1.25-1.19-1.43-1.17-3.71.11-5.08.18-.19,1.76-1.11,1.87-1.11h12.02v-7.81c0-2.84,4.47-7.31,7.31-7.31h7.81V4.7c0-.1.84-1.59.99-1.74.49-.53,1.28-.56,1.74-1.11h1.98ZM733.6,31.66c-1.65.51-2.61,1.56-2.91,3.28v60.51c.2,2.07,1.52,3.39,3.59,3.59h60.26c2.07-.2,3.39-1.52,3.59-3.59v-60.26c-.2-2.07-1.52-3.39-3.59-3.59l-60.94.07Z"/><rect class="d" x="738.13" y="39.04" width="52.55" height="52.55"/><path class="d" d="M735.65,1.85c.47.54,1.25.58,1.74,1.11.14.15.99,1.64.99,1.74v12.02h7.44V4.7c0-.1.84-1.59.99-1.74.49-.53,1.28-.56,1.74-1.11h1.98c.47.54,1.25.58,1.74,1.11.14.15.99,1.64.99,1.74v12.02h7.44V4.7c0-.1.84-1.59.99-1.74.49-.53,1.28-.56,1.74-1.11h1.98c.47.54,1.25.58,1.74,1.11.14.15.99,1.64.99,1.74v12.02h7.44V4.7c0-.1.84-1.59.99-1.74.49-.53,1.28-.56,1.74-1.11h1.98c.47.54,1.25.58,1.74,1.11.14.15.99,1.64.99,1.74v12.02h7.44V4.7c0-.1.84-1.59.99-1.74.49-.53,1.28-.56,1.74-1.11h1.98c.47.54,1.25.58,1.74,1.11.14.15.99,1.64.99,1.74v12.02h7.81c2.84,0,7.31,4.48,7.31,7.31v7.81h12.02c.1,0,1.59.84,1.74.99.53.49.56,1.28,1.11,1.74v1.98c-.54.47-.58,1.25-1.11,1.74-.15.14-1.64.99-1.74.99h-12.02v7.44h12.02c.1,0,1.59.84,1.74.99.53.49.56,1.28,1.11,1.74v1.98c-.54.47-.58,1.25-1.11,1.74-.15.14-1.64.99-1.74.99h-12.02v7.44h12.02c.1,0,1.59.84,1.74.99.53.49.56,1.28,1.11,1.74v1.98c-.54.47-.58,1.25-1.11,1.74-.15.14-1.64.99-1.74.99h-12.02v7.44h12.02c.1,0,1.59.84,1.74.99.53.49.56,1.28,1.11,1.74v1.98c-.54.47-.58,1.25-1.11,1.74-.15.14-1.64.99-1.74.99h-12.02v7.44h12.02c.1,0,1.59.84,1.74.99.53.49.56,1.28,1.11,1.74v1.98c-.54.47-.58,1.25-1.11,1.74-.15.14-1.64.99-1.74.99h-12.02v7.81c0,2.84-4.48,7.31-7.31,7.31h-7.81v12.02c0,.17-.98,1.75-1.25,1.97-1.43,1.19-3.71,1.17-5.08-.11-.19-.18-1.11-1.76-1.11-1.87v-12.02h-7.44v12.02c0,.17-.98,1.75-1.25,1.97-1.43,1.19-3.71,1.17-5.08-.11-.19-.18-1.11-1.76-1.11-1.87v-12.02h-7.44v12.02c0,.17-.98,1.75-1.25,1.97-1.43,1.19-3.71,1.17-5.08-.11-.19-.18-1.11-1.76-1.11-1.87v-12.02h-7.44v12.02c0,.17-.98,1.75-1.25,1.97-1.43,1.19-3.71,1.17-5.08-.11-.19-.18-1.11-1.76-1.11-1.87v-12.02h-7.44v12.02c0,.17-.98,1.75-1.25,1.97-1.43,1.19-3.71,1.17-5.08-.11-.19-.18-1.11-1.76-1.11-1.87v-12.02h-7.81c-2.84,0-7.31-4.48-7.31-7.31v-7.81h-12.02c-.17,0-1.75-.98-1.97-1.25-1.19-1.43-1.17-3.71.11-5.08.18-.19,1.76-1.11,1.87-1.11h12.02v-7.44h-12.02c-.17,0-1.75-.98-1.97-1.25-1.19-1.43-1.17-3.71.11-5.08.18-.19,1.76-1.11,1.87-1.11h12.02v-7.44h-12.02c-.17,0-1.75-.98-1.97-1.25-1.19-1.43-1.17-3.71.11-5.08.18-.19,1.76-1.11,1.87-1.11h12.02v-7.44h-12.02c-.17,0-1.75-.98-1.97-1.25-1.19-1.43-1.17-3.71.11-5.08.18-.19,1.76-1.11,1.87-1.11h12.02v-7.44h-12.02c-.17,0-1.75-.98-1.97-1.25-1.19-1.43-1.17-3.71.11-5.08.18-.19,1.76-1.11,1.87-1.11h12.02v-7.81c0-2.84,4.47-7.31,7.31-7.31h7.81V4.7c0-.1.84-1.59.99-1.74.49-.53,1.28-.56,1.74-1.11h1.98ZM733.6,31.66c-1.65.51-2.61,1.56-2.91,3.28v60.51c.2,2.07,1.52,3.39,3.59,3.59h60.26c2.07-.2,3.39-1.52,3.59-3.59v-60.26c-.2-2.07-1.52-3.39-3.59-3.59l-60.94.07Z"/><rect class="d" x="738.13" y="39.04" width="52.55" height="52.55"/></g></svg>